<svg width="62" height="24" viewBox="0 0 62 24" fill="none" xmlns="http://www.w3.org/2000/svg">
<g clip-path="url(#clip0_226_3247)">
<path d="M15.1219 4.4902C14.5379 5.19772 13.5496 5.72556 12.7635 5.72556C12.6736 5.72556 12.5838 5.71432 12.5276 5.70309C12.5164 5.65817 12.4939 5.52341 12.4939 5.38864C12.4939 4.4902 12.9544 3.59177 13.4485 3.03024C14.0774 2.28903 15.1331 1.73874 16.0091 1.70505C16.0315 1.80612 16.0428 1.92966 16.0428 2.05319C16.0428 2.95163 15.6609 3.83884 15.1219 4.4902ZM15.7396 5.91647C16.2337 5.91647 18.0193 5.9614 19.1873 7.64597C19.0862 7.72458 17.3118 8.72409 17.3118 10.959C17.3118 13.542 19.5691 14.4629 19.6365 14.4853C19.6253 14.5415 19.2772 15.7319 18.4461 16.956C17.7049 18.0229 16.9188 19.101 15.7396 19.101C14.5491 19.101 14.2459 18.4048 12.887 18.4048C11.5506 18.4048 11.0789 19.1235 10.0008 19.1235C8.91143 19.1235 8.15899 18.124 7.29424 16.9111C6.2835 15.4736 5.47491 13.25 5.47491 11.1386C5.47491 7.75827 7.67608 5.9614 9.84356 5.9614C10.9891 5.9614 11.9437 6.71384 12.6736 6.71384C13.3587 6.71384 14.4256 5.91647 15.7396 5.91647ZM21.1985 19V2.7944H27.6673C30.9578 2.7944 33.1814 4.96188 33.1814 8.20749V8.22995C33.1814 11.4643 30.9578 13.643 27.6673 13.643H24.096V19H21.1985ZM26.9597 5.16403H24.096V11.3071H26.9597C29.0374 11.3071 30.2503 10.1841 30.2503 8.24118V8.21872C30.2503 6.27585 29.0374 5.16403 26.9597 5.16403ZM37.7644 19.2021C35.4284 19.2021 33.7326 17.7646 33.7326 15.5298V15.5073C33.7326 13.3174 35.406 12.0371 38.3933 11.8574L41.5491 11.6665V10.6108C41.5491 9.38669 40.7517 8.71286 39.2468 8.71286C37.9665 8.71286 37.1355 9.17331 36.8547 9.9819L36.8435 10.0268H34.2043L34.2156 9.92575C34.4851 7.85934 36.4616 6.48923 39.3816 6.48923C42.5373 6.48923 44.3117 8.01657 44.3117 10.6108V19H41.5491V17.3154H41.3581C40.6843 18.5058 39.3816 19.2021 37.7644 19.2021ZM36.4953 15.395C36.4953 16.4394 37.3825 17.0571 38.6179 17.0571C40.3025 17.0571 41.5491 15.9565 41.5491 14.4966V13.5083L38.7864 13.688C37.2253 13.789 36.4953 14.3618 36.4953 15.3725V15.395ZM47.3786 23.3125C47.0417 23.3125 46.6486 23.3012 46.3117 23.2675V21.1225C46.5363 21.145 46.8508 21.1562 47.1428 21.1562C48.2883 21.1562 48.9733 20.6845 49.2766 19.5727L49.4226 19.0112L45.0314 6.72507H48.0861L50.9499 16.3159H51.1633L54.0158 6.72507H56.9582L52.5559 19.2583C51.5002 22.3354 50.0964 23.3125 47.3786 23.3125Z" fill="white"/>
</g>
<defs>
<clipPath id="clip0_226_3247">
<rect width="61.5836" height="24" fill="white" transform="translate(0.208252 -3.05176e-05)"/>
</clipPath>
</defs>
</svg>
