<svg width="51" height="15" viewBox="0 0 51 15" fill="none" xmlns="http://www.w3.org/2000/svg">
<path d="M25.1852 5.14133C24.7792 5.14133 24.4311 5.47409 24.4311 5.8623V11.2419C24.4311 11.6301 24.7792 11.9629 25.1852 11.9629C25.5913 11.9629 25.9393 11.6301 25.9393 11.2419V5.8623C25.9973 5.47409 25.6493 5.14133 25.1852 5.14133ZM25.1852 2.47927C24.7212 2.47927 24.3151 2.86748 24.3151 3.31116C24.3151 3.75484 24.7212 4.14305 25.1852 4.14305C25.6493 4.14305 26.0553 3.75484 26.0553 3.31116C26.0553 2.81202 25.7073 2.47927 25.1852 2.47927ZM32.6681 5.8623C32.6681 5.41863 32.2621 5.25225 31.972 5.25225H28.2016C27.8535 5.25225 27.5055 5.52955 27.5055 5.8623C27.5055 6.19506 27.7955 6.52782 28.2016 6.52782H30.6959L27.5055 10.7982C27.3895 10.9091 27.3315 11.0755 27.3315 11.2419C27.3315 11.6856 27.7375 11.9629 28.0276 11.9629H32.03C32.3781 11.9629 32.6681 11.6856 32.6681 11.2973C32.6681 10.9646 32.3781 10.6318 32.03 10.6318H29.3037L32.4361 6.47236C32.6101 6.19506 32.6681 6.02868 32.6681 5.8623ZM21.5308 9.24534C21.5308 10.1327 21.1247 10.6873 20.1966 10.6873C19.2685 10.6873 18.8625 10.1327 18.8625 9.24534V6.47236H20.2546C21.3568 6.47236 21.5308 7.08242 21.5308 7.69247V9.24534ZM23.039 7.69247C23.039 6.19506 22.2269 5.19679 20.2546 5.19679H18.8625V3.20024C18.8625 2.81202 18.5144 2.47927 18.1084 2.47927C17.7023 2.47927 17.3543 2.81202 17.3543 3.20024V9.24534C17.3543 10.7428 18.2244 11.9629 20.1966 11.9629C22.1689 11.9629 23.039 10.7428 23.039 9.24534V7.69247ZM38.5848 5.14133C38.1788 5.14133 37.8307 5.47409 37.8307 5.8623V9.24534C37.8307 10.1327 37.4247 10.6873 36.4966 10.6873C35.5685 10.6873 35.1624 10.1327 35.1624 9.24534V5.8623C35.1624 5.47409 34.8144 5.14133 34.4083 5.14133C34.0023 5.14133 33.6542 5.47409 33.6542 5.8623V9.24534C33.6542 10.7428 34.5243 11.9629 36.4966 11.9629C38.4688 11.9629 39.3389 10.7428 39.3389 9.24534V5.8623C39.3389 5.47409 38.9909 5.14133 38.5848 5.14133ZM50.1282 7.85885C50.1282 6.36144 49.4321 5.14133 47.4019 5.14133C46.5318 5.14133 45.8937 5.41863 45.4296 5.80684C45.0236 5.36317 44.3855 5.14133 43.5154 5.14133C41.5432 5.14133 40.7891 6.36144 40.7891 7.85885V11.2419C40.7891 11.6301 41.1371 11.9629 41.5432 11.9629C41.9492 11.9629 42.2973 11.6301 42.2973 11.2419V7.85885C42.2973 6.9715 42.5873 6.4169 43.5154 6.4169C44.4435 6.4169 44.7336 6.9715 44.7336 7.85885V11.2419C44.7336 11.6301 45.0816 11.9629 45.4876 11.9629C45.8937 11.9629 46.2417 11.6301 46.2417 11.2419V7.85885C46.2417 6.9715 46.5318 6.4169 47.4599 6.4169C48.388 6.4169 48.678 6.9715 48.678 7.85885V11.2419C48.678 11.6301 49.0261 11.9629 49.4321 11.9629C49.8382 11.9629 50.1862 11.6301 50.1862 11.2419L50.1282 7.85885ZM3.49064 5.14133C4.01271 5.52955 4.7668 5.41863 5.17284 4.86403L6.56501 3.03386C6.97106 2.53472 6.85504 1.81375 6.27497 1.42553C5.75291 1.09277 5.05683 1.20369 4.65078 1.70283L3.25862 3.533C2.85257 4.08759 2.96858 4.75311 3.49064 5.14133ZM9.92941 2.53473C9.40735 2.14651 8.65326 2.25743 8.24721 2.81202L2.62054 10.1882C2.2725 10.6873 2.38851 11.4083 2.91057 11.7965C3.43264 12.1847 4.18673 12.0738 4.59277 11.5192L10.2194 4.14305C10.5675 3.64392 10.4515 2.92294 9.92941 2.53473ZM2.96858 1.98013C3.37463 1.48099 3.25862 0.760016 2.67855 0.371799C2.15648 -0.0164188 1.4604 0.0945005 1.05435 0.593637C0.648305 1.09277 0.764319 1.81375 1.34439 2.20197C1.86645 2.59018 2.62054 2.47927 2.96858 1.98013ZM11.4956 12.1292C10.9735 11.741 10.2194 11.8519 9.8134 12.4065C9.40735 12.9057 9.52336 13.6267 10.1034 14.0149C10.6255 14.4031 11.3796 14.2922 11.7856 13.7376C12.1337 13.183 12.0177 12.462 11.4956 12.1292ZM9.29133 9.18988C8.76927 8.80166 8.01518 8.91258 7.60913 9.46718L6.21697 11.2419C5.81092 11.741 5.92693 12.462 6.507 12.8502C7.02907 13.2384 7.78315 13.1275 8.1892 12.5729L9.58137 10.7428C9.92941 10.2436 9.8134 9.52264 9.29133 9.18988Z" fill="black"/>
</svg>
