<svg width="130" height="16" viewBox="0 0 130 16" fill="none" xmlns="http://www.w3.org/2000/svg">
<rect y="0.857147" width="20" height="14.2857" rx="2.14286" fill="url(#paint0_linear_2_5157)"/>
<path d="M10.078 7.08444C10.0704 7.68142 10.61 8.01459 11.0165 8.21266C11.4342 8.4159 11.5744 8.54622 11.5729 8.72795C11.5697 9.00611 11.2397 9.12886 10.9308 9.13364C10.392 9.14201 10.0788 8.98818 9.82972 8.87181L9.63564 9.78005C9.88551 9.89522 10.3482 9.99565 10.828 10C11.9542 10 12.6911 9.44409 12.6951 8.58209C12.6995 7.48814 11.1819 7.42757 11.1923 6.93858C11.1959 6.79033 11.3373 6.63211 11.6474 6.59186C11.8008 6.57154 12.2244 6.556 12.7047 6.77718L12.8932 5.89843C12.6349 5.80438 12.3029 5.71432 11.8897 5.71432C10.8296 5.71432 10.084 6.27783 10.078 7.08444ZM14.7045 5.79004C14.4988 5.79004 14.3255 5.90999 14.2481 6.09411L12.6393 9.93547H13.7647L13.9887 9.31656H15.364L15.4939 9.93547H16.4858L15.6203 5.79004H14.7045ZM14.8619 6.90988L15.1867 8.46651H14.2972L14.8619 6.90988ZM8.71345 5.79004L7.82634 9.93547H8.89877L9.78548 5.79004H8.71345ZM7.12693 5.79004L6.01067 8.61158L5.55914 6.21247C5.50614 5.94466 5.29692 5.79004 5.06458 5.79004H3.23974L3.21423 5.91039C3.58885 5.99169 4.01447 6.1228 4.27231 6.26308C4.43013 6.34876 4.47516 6.42369 4.52697 6.62733L5.3822 9.93547H6.5156L8.25316 5.79004H7.12693Z" fill="white"/>
<rect x="22" y="0.857147" width="20" height="14.2857" rx="2.14286" fill="#01326F"/>
<path d="M33.6651 4.48792H29.9155V11.2264H33.6651V4.48792Z" fill="#FF5F00"/>
<path d="M30.1536 7.85793C30.1529 7.20887 30.2999 6.56816 30.5834 5.98432C30.867 5.40048 31.2797 4.88882 31.7903 4.48808C31.1581 3.99126 30.3989 3.68232 29.5994 3.59656C28.8 3.5108 27.9925 3.65169 27.2694 4.00313C26.5462 4.35456 25.9365 4.90236 25.5099 5.58392C25.0834 6.26548 24.8572 7.0533 24.8572 7.85733C24.8572 8.66137 25.0834 9.44919 25.5099 10.1307C25.9365 10.8123 26.5462 11.3601 27.2694 11.7115C27.9925 12.063 28.8 12.2039 29.5994 12.1181C30.3989 12.0324 31.1581 11.7234 31.7903 11.2266C31.2799 10.826 30.8673 10.3145 30.5837 9.73088C30.3001 9.14726 30.153 8.50679 30.1536 7.85793Z" fill="#EB001B"/>
<path d="M38.7238 7.85772C38.7237 8.66182 38.4975 9.44968 38.0708 10.1313C37.6442 10.8128 37.0344 11.3606 36.3112 11.712C35.5879 12.0634 34.7804 12.2042 33.9809 12.1183C33.1814 12.0324 32.4222 11.7234 31.79 11.2264C32.3003 10.8254 32.7127 10.3138 32.9964 9.73014C33.28 9.14649 33.4274 8.50604 33.4274 7.85713C33.4274 7.20821 33.28 6.56776 32.9964 5.98411C32.7127 5.40046 32.3003 4.88885 31.79 4.48787C32.4222 3.9909 33.1814 3.6818 33.9809 3.59592C34.7804 3.51004 35.5879 3.65084 36.3112 4.00223C37.0344 4.35361 37.6442 4.9014 38.0708 5.58298C38.4975 6.26457 38.7237 7.05243 38.7238 7.85653V7.85772Z" fill="#F79E1B"/>
<g clip-path="url(#clip0_2_5157)">
<rect x="44" y="0.857147" width="20" height="14.2857" rx="2.14286" fill="#1D71B9"/>
<path fill-rule="evenodd" clip-rule="evenodd" d="M55.9786 12.275V7.73959L64.0507 7.74701V8.99978L63.1176 9.99656L64.0507 11.003V12.2821H62.5611L61.7695 11.4086L60.9834 12.2857L55.9786 12.275Z" fill="white"/>
<path fill-rule="evenodd" clip-rule="evenodd" d="M56.5181 11.7774V8.23859H59.5189V9.05381H57.4899V9.60727H59.4705V10.409H57.4899V10.9526H59.5189V11.7774H56.5181Z" fill="#1D71B9"/>
<path fill-rule="evenodd" clip-rule="evenodd" d="M59.504 11.7775L61.1641 10.0062L59.504 8.23892H60.7889L61.8036 9.3604L62.821 8.23892H64.0509V8.26666L62.426 10.0062L64.0509 11.7275V11.7775H62.8086L61.7761 10.6448L60.7541 11.7775H59.504Z" fill="#1D71B9"/>
<path fill-rule="evenodd" clip-rule="evenodd" d="M56.3554 3.71429H58.3012L58.9846 5.26619V3.71429H61.3868L61.801 4.87698L62.2166 3.71429H64.0509V8.24939H54.3572L56.3554 3.71429Z" fill="white"/>
<path fill-rule="evenodd" clip-rule="evenodd" d="M56.7239 4.20703L55.1536 7.74287H56.2306L56.5266 7.03477H58.1318L58.4279 7.74287H59.5315L57.9678 4.20703H56.7239ZM56.8587 6.24125L57.3295 5.11564L57.8 6.24125H56.8587Z" fill="#1D71B9"/>
<path fill-rule="evenodd" clip-rule="evenodd" d="M59.5172 7.74229V4.20645L61.0309 4.21167L61.8099 6.38542L62.5941 4.20645H64.0509V7.74229L63.1135 7.75053V5.32162L62.2285 7.74229H61.3726L60.4692 5.31338V7.74229H59.5172Z" fill="#1D71B9"/>
</g>
<rect x="66" y="0.857147" width="20" height="14.2857" rx="2.14286" fill="#CCECFF"/>
<path d="M76.9328 12.6843C79.3896 12.6963 81.6323 10.685 81.6323 8.23827C81.6323 5.56283 79.3896 3.71353 76.9328 3.71429H74.8185C72.3322 3.71353 70.2858 5.56326 70.2858 8.23827C70.2858 10.6856 72.3322 12.6963 74.8185 12.6843H76.9328Z" fill="#016AAB"/>
<path d="M75.7616 10.6208V5.76242C76.7402 6.13703 77.4349 7.0825 77.4365 8.19144C77.4349 9.30061 76.7402 10.2455 75.7616 10.6208ZM72.2211 8.19144C72.2233 7.08316 72.9169 6.13824 73.895 5.76253V10.6198C72.9169 10.2444 72.2233 9.30006 72.2211 8.19144ZM74.8284 4.08514C72.5566 4.08591 70.7156 5.92359 70.7151 8.19144C70.7156 10.4591 72.5566 12.2964 74.8284 12.2971C77.1011 12.2964 78.9423 10.4591 78.9427 8.19144C78.9423 5.92359 77.1011 4.08591 74.8284 4.08514Z" fill="white"/>
<rect x="88" y="0.857147" width="20" height="14.2857" rx="2.14286" fill="white"/>
<path d="M100.905 8.17349C101.215 8.18023 101.527 8.1598 101.835 8.18411C102.148 8.24245 102.224 8.71593 101.946 8.871C101.756 8.97315 101.531 8.90905 101.325 8.92706H100.905V8.17349ZM102.015 7.32055C102.084 7.56371 101.849 7.78203 101.615 7.74855H100.905C100.91 7.51924 100.895 7.27035 100.912 7.05311C101.197 7.06113 101.484 7.03677 101.767 7.06585C101.888 7.09639 101.99 7.19632 102.015 7.32055ZM103.724 3.71456C103.737 4.17893 103.726 4.66785 103.73 5.14164C103.729 7.06792 103.732 8.99414 103.728 10.9205C103.716 11.6424 103.076 12.2697 102.359 12.2841C101.642 12.2871 100.924 12.2846 100.206 12.2854V9.37326C100.988 9.36923 101.771 9.38146 102.552 9.36716C102.915 9.34439 103.312 9.10513 103.329 8.70609C103.372 8.30531 102.994 8.02811 102.635 7.98433C102.497 7.98075 102.501 7.94413 102.635 7.92816C102.977 7.85421 103.246 7.50008 103.145 7.14542C103.059 6.77241 102.647 6.62804 102.304 6.62875C101.605 6.624 100.906 6.62809 100.206 6.62671C100.211 6.08305 100.197 5.53881 100.214 4.99555C100.269 4.28666 100.925 3.70206 101.632 3.71474C102.33 3.71464 103.027 3.71464 103.724 3.71461V3.71456Z" fill="url(#paint1_linear_2_5157)"/>
<path d="M92.3044 5.06888C92.3222 4.34811 92.9647 3.72596 93.6807 3.71543C94.3957 3.71323 95.1108 3.71511 95.8257 3.71447C95.8238 6.12603 95.8296 8.53786 95.8228 10.9493C95.7953 11.6613 95.1597 12.2716 94.4515 12.2842C93.7352 12.2868 93.0188 12.2846 92.3025 12.2853V9.27498C92.9983 9.43936 93.728 9.50933 94.4378 9.4003C94.8621 9.33203 95.3263 9.12365 95.47 8.68345C95.5757 8.3069 95.5162 7.91062 95.5319 7.52415V6.62663H94.3035C94.298 7.22022 94.3148 7.81486 94.2946 8.40773C94.2615 8.77216 93.9006 9.00369 93.5569 8.99133C93.1306 8.99584 92.286 8.68242 92.286 8.68242C92.2839 7.57026 92.2983 6.17746 92.3044 5.06899V5.06888Z" fill="url(#paint2_linear_2_5157)"/>
<path d="M96.2838 6.98875C96.2192 7.00247 96.2708 6.76849 96.2543 6.67973C96.2587 6.11853 96.2451 5.55672 96.2618 4.99592C96.3171 4.28404 96.978 3.69798 97.6877 3.71464H99.7777C99.7758 6.1262 99.7816 8.53802 99.7748 10.9495C99.7472 11.6615 99.1116 12.2717 98.4034 12.2844C97.6871 12.2871 96.9707 12.2848 96.2543 12.2855V8.98728C96.7435 9.38871 97.4085 9.4512 98.018 9.45229C98.4776 9.45213 98.9344 9.38128 99.3806 9.2753V8.67107C98.8777 8.92171 98.2866 9.08091 97.7291 8.93691C97.3402 8.84012 97.0579 8.46429 97.0642 8.06296C97.0191 7.6456 97.2638 7.20497 97.6739 7.0809C98.1831 6.92148 98.7381 7.04341 99.2154 7.25067C99.3177 7.30421 99.4215 7.37063 99.3806 7.19969V6.72476C98.5823 6.53483 97.7328 6.46494 96.9307 6.67156C96.6986 6.73704 96.4724 6.83636 96.2838 6.9888V6.98875Z" fill="url(#paint3_linear_2_5157)"/>
<g clip-path="url(#clip1_2_5157)">
<rect x="110" y="0.857147" width="20" height="14.2857" rx="2.14286" fill="#01326F"/>
<g clip-path="url(#clip2_2_5157)">
<rect x="109.286" y="0.857147" width="21.2625" height="14.2857" rx="2.14286" fill="#F7F7F7"/>
<path d="M110.863 0.857117H119.649C120.875 0.857117 121.638 1.63389 121.352 2.59005L117.262 16.2365C116.973 17.1893 115.745 17.9668 114.518 17.9668H105.733C104.508 17.9668 103.744 17.1893 104.03 16.2365L108.122 2.59005C108.408 1.63389 109.635 0.857117 110.863 0.857117Z" fill="#E21836"/>
<path d="M119.048 0.857117H127.27C128.268 0.857117 127.818 1.63389 127.583 2.59005L124.255 16.2365C124.021 17.1893 124.094 17.9668 123.094 17.9668H114.872C113.872 17.9668 113.253 17.1893 113.488 16.2365L116.816 2.59005C117.053 1.63389 118.049 0.857117 119.048 0.857117Z" fill="#00447C"/>
<path d="M126.536 0.857117H133.336C134.287 0.857117 134.877 1.63078 134.654 2.58311L131.488 16.1749C131.265 17.1239 130.314 17.8982 129.364 17.8982H122.567C121.616 17.8982 121.026 17.1239 121.249 16.1749L124.415 2.58311C124.636 1.63078 125.585 0.857117 126.536 0.857117Z" fill="#007B84"/>
<path d="M114.866 4.69508C114.361 4.70022 114.212 4.69508 114.165 4.68384C114.146 4.77078 113.806 6.34129 113.805 6.34261C113.732 6.66035 113.678 6.88684 113.497 7.03309C113.394 7.11812 113.274 7.15914 113.135 7.15914C112.911 7.15914 112.781 7.04804 112.759 6.83733L112.755 6.76498C112.755 6.76498 112.823 6.33938 112.823 6.33699C112.823 6.33699 113.18 4.90579 113.244 4.71661C113.248 4.70584 113.249 4.70022 113.25 4.69508C112.554 4.70118 112.431 4.69508 112.422 4.68384C112.418 4.69927 112.4 4.788 112.4 4.788L112.036 6.40109L112.004 6.53789L111.944 6.98538C111.944 7.11812 111.97 7.22646 112.022 7.31807C112.188 7.60854 112.662 7.65207 112.93 7.65207C113.276 7.65207 113.6 7.57864 113.819 7.44459C114.199 7.21989 114.299 6.86866 114.388 6.55655L114.429 6.39642C114.429 6.39642 114.797 4.90998 114.859 4.71661C114.862 4.70584 114.863 4.70022 114.866 4.69508ZM116.118 5.89421C116.03 5.89421 115.867 5.91574 115.722 5.98713C115.669 6.01427 115.619 6.04561 115.566 6.07682L115.614 5.90497L115.588 5.87603C115.279 5.93858 115.21 5.94695 114.924 5.98713L114.9 6.00303C114.867 6.27772 114.838 6.48425 114.715 7.02417C114.668 7.22316 114.62 7.42407 114.571 7.62258L114.584 7.64781C114.877 7.63238 114.965 7.63238 115.219 7.63657L115.24 7.61421C115.272 7.44882 115.277 7.41008 115.348 7.07512C115.382 6.91631 115.452 6.56736 115.486 6.44311C115.55 6.41369 115.612 6.38475 115.672 6.38475C115.815 6.38475 115.797 6.509 115.792 6.55851C115.786 6.64162 115.734 6.91308 115.681 7.14615L115.645 7.29659C115.62 7.40768 115.593 7.51567 115.568 7.62581L115.579 7.64781C115.867 7.63238 115.955 7.63238 116.201 7.63657L116.23 7.61421C116.275 7.3559 116.288 7.28678 116.367 6.91069L116.406 6.73789C116.484 6.3997 116.522 6.22821 116.464 6.08854C116.402 5.932 116.254 5.89421 116.118 5.89421ZM117.517 6.24829C117.364 6.27771 117.266 6.29732 117.169 6.31C117.073 6.32542 116.979 6.33942 116.831 6.35998L116.819 6.37063L116.809 6.37912C116.793 6.48938 116.782 6.58469 116.762 6.69674C116.745 6.81262 116.718 6.94428 116.675 7.13346C116.641 7.27828 116.624 7.32875 116.605 7.37969C116.586 7.43063 116.565 7.48014 116.528 7.62257L116.536 7.63572L116.544 7.6478C116.682 7.64122 116.773 7.63656 116.866 7.63572C116.959 7.63237 117.055 7.63572 117.204 7.63656L117.217 7.62592L117.231 7.6142C117.252 7.48576 117.256 7.4512 117.269 7.38854C117.282 7.32133 117.304 7.22829 117.359 6.9798C117.386 6.86308 117.415 6.74672 117.442 6.62762C117.47 6.50899 117.499 6.39215 117.527 6.27544L117.523 6.26133L117.517 6.24829ZM117.521 5.77088C117.381 5.68873 117.137 5.7148 116.973 5.82828C116.809 5.9395 116.79 6.09735 116.929 6.18058C117.066 6.26047 117.311 6.23667 117.474 6.12222C117.637 6.00862 117.658 5.8522 117.521 5.77088ZM118.362 7.67355C118.644 7.67355 118.933 7.59593 119.15 7.36561C119.317 7.17882 119.394 6.9009 119.42 6.78646C119.507 6.40714 119.44 6.23003 119.355 6.12216C119.227 5.95773 119 5.905 118.764 5.905C118.623 5.905 118.285 5.91899 118.022 6.16187C117.833 6.33706 117.745 6.5748 117.693 6.80272C117.639 7.03496 117.578 7.45303 117.963 7.60861C118.081 7.65955 118.252 7.67355 118.362 7.67355ZM118.34 6.82006C118.405 6.53282 118.482 6.29174 118.678 6.29174C118.831 6.29174 118.842 6.47111 118.774 6.75932C118.762 6.82329 118.706 7.06115 118.63 7.16244C118.577 7.23718 118.515 7.2825 118.446 7.2825C118.425 7.2825 118.303 7.2825 118.301 7.10085C118.3 7.01116 118.318 6.91956 118.34 6.82006ZM120.124 7.63661L120.146 7.61424C120.178 7.44886 120.183 7.40999 120.252 7.07515C120.286 6.91634 120.358 6.56739 120.392 6.44314C120.455 6.41361 120.517 6.38467 120.578 6.38467C120.72 6.38467 120.703 6.50892 120.697 6.55842C120.692 6.64166 120.64 6.913 120.586 7.14607L120.552 7.2965C120.527 7.40772 120.499 7.51559 120.474 7.62584L120.485 7.64785C120.774 7.63242 120.858 7.63242 121.106 7.63661L121.136 7.61424C121.179 7.35582 121.191 7.2867 121.272 6.91072L121.311 6.7378C121.388 6.39961 121.428 6.22825 121.37 6.08857C121.307 5.93204 121.158 5.89425 121.024 5.89425C120.935 5.89425 120.772 5.91565 120.627 5.98716C120.575 6.01431 120.523 6.04552 120.472 6.07685L120.517 5.90501L120.493 5.87595C120.184 5.93861 120.114 5.94698 119.829 5.98716L119.807 6.00307C119.772 6.27776 119.744 6.48416 119.621 7.02421C119.575 7.2232 119.526 7.4241 119.477 7.62261L119.49 7.64785C119.783 7.63242 119.871 7.63242 120.124 7.63661ZM122.249 7.64779C122.267 7.55905 122.375 7.03312 122.376 7.03312C122.376 7.03312 122.468 6.64722 122.474 6.63322C122.474 6.63322 122.503 6.59304 122.531 6.57714H122.574C122.976 6.57714 123.429 6.57714 123.785 6.31561C124.027 6.13623 124.192 5.87135 124.266 5.54942C124.285 5.4705 124.299 5.37662 124.299 5.28275C124.299 5.15945 124.274 5.03748 124.203 4.94217C124.022 4.68853 123.661 4.68386 123.244 4.68195C123.243 4.68195 123.038 4.68386 123.038 4.68386C122.505 4.69044 122.291 4.68853 122.203 4.67776C122.196 4.71663 122.182 4.78575 122.182 4.78575C122.182 4.78575 121.991 5.6714 121.991 5.67283C121.991 5.67283 121.533 7.55583 121.512 7.64456C121.978 7.63894 122.169 7.63894 122.249 7.64779ZM122.603 6.07452C122.603 6.07452 122.806 5.19067 122.805 5.19401L122.812 5.14869L122.815 5.11413L122.896 5.1225C122.896 5.1225 123.315 5.1585 123.325 5.15945C123.49 5.22343 123.558 5.38834 123.511 5.60359C123.467 5.80031 123.34 5.9657 123.176 6.04558C123.041 6.11327 122.875 6.11889 122.705 6.11889H122.595L122.603 6.07452ZM123.868 6.83644C123.814 7.06532 123.753 7.48339 124.135 7.6324C124.257 7.6843 124.366 7.69972 124.478 7.6941C124.595 7.68776 124.704 7.62893 124.804 7.54426C124.795 7.57906 124.786 7.61386 124.777 7.64878L124.794 7.67114C125.069 7.65954 125.155 7.65954 125.453 7.66181L125.48 7.64125C125.524 7.38533 125.565 7.13683 125.678 6.64725C125.733 6.41274 125.788 6.18051 125.844 5.94696L125.836 5.92125C125.528 5.97829 125.445 5.99049 125.149 6.03246L125.127 6.05076C125.124 6.07456 125.121 6.0974 125.118 6.12024C125.072 6.04586 125.005 5.98236 124.902 5.94277C124.771 5.89099 124.461 5.95772 124.195 6.19976C124.009 6.37256 123.919 6.60934 123.868 6.83644ZM124.514 6.85043C124.58 6.56833 124.656 6.32963 124.852 6.32963C124.976 6.32963 125.042 6.44408 125.028 6.63924C125.018 6.68791 125.006 6.73921 124.993 6.79721C124.973 6.88104 124.952 6.96415 124.931 7.04738C124.91 7.10431 124.886 7.158 124.859 7.19376C124.808 7.26527 124.688 7.30964 124.619 7.30964C124.6 7.30964 124.478 7.30964 124.474 7.13121C124.473 7.04236 124.492 6.95088 124.514 6.85043ZM127.89 5.91897L127.867 5.89182C127.562 5.95353 127.507 5.96333 127.227 6.00112L127.207 6.02169C127.206 6.02504 127.205 6.03018 127.203 6.03484L127.202 6.03018C126.994 6.51079 127 6.40711 126.831 6.78548C126.83 6.76826 126.83 6.7575 126.829 6.7392L126.786 5.91897L126.76 5.89182C126.44 5.95353 126.433 5.96333 126.138 6.00112L126.115 6.02169C126.112 6.03149 126.112 6.04226 126.11 6.05398L126.112 6.05816C126.149 6.24639 126.14 6.20442 126.177 6.50147C126.194 6.64724 126.217 6.79385 126.234 6.93783C126.263 7.1788 126.28 7.29743 126.315 7.66515C126.116 7.99353 126.069 8.11778 125.878 8.40598L125.879 8.40885L125.744 8.62219C125.729 8.64467 125.715 8.6601 125.695 8.66668C125.673 8.67732 125.645 8.67923 125.607 8.67923H125.532L125.421 9.04875L125.802 9.05533C126.026 9.05437 126.166 8.94974 126.242 8.8091L126.482 8.39845H126.478L126.503 8.36951C126.664 8.02247 127.89 5.91897 127.89 5.91897ZM123.868 10.772H123.706L124.305 8.79278H124.503L124.566 8.58889L124.572 8.81562C124.565 8.95578 124.675 9.08003 124.965 9.05946H125.3L125.415 8.67834H125.289C125.217 8.67834 125.183 8.66004 125.187 8.62082L125.181 8.39014H124.561V8.39133C124.36 8.39552 123.761 8.41059 123.64 8.44287C123.493 8.48066 123.339 8.59188 123.339 8.59188L123.399 8.38775H122.819L122.698 8.79278L122.092 10.8023H121.974L121.859 11.1807H123.015L122.976 11.3068H123.545L123.583 11.1807H123.743L123.868 10.772ZM123.394 9.19495C123.301 9.22066 123.128 9.29863 123.128 9.29863L123.282 8.79278H123.743L123.632 9.16134C123.632 9.16134 123.489 9.16971 123.394 9.19495ZM123.403 9.9176C123.403 9.9176 123.258 9.93578 123.163 9.9573C123.069 9.98577 122.893 10.0755 122.893 10.0755L123.051 9.54904H123.515L123.403 9.9176ZM123.144 10.7767H122.682L122.816 10.3324H123.277L123.144 10.7767ZM124.258 9.54904H124.925L124.829 9.85924H124.153L124.052 10.1984H124.643L124.195 10.8285C124.164 10.8748 124.136 10.8911 124.105 10.9042C124.074 10.9201 124.032 10.9387 123.985 10.9387H123.821L123.708 11.3102H124.137C124.36 11.3102 124.492 11.2088 124.589 11.0757L124.896 10.6557L124.962 11.0821C124.976 11.162 125.033 11.2088 125.072 11.2269C125.115 11.2485 125.159 11.2854 125.222 11.2909C125.289 11.2938 125.338 11.2961 125.37 11.2961H125.581L125.707 10.8804H125.624C125.576 10.8804 125.494 10.8724 125.48 10.8574C125.466 10.8392 125.466 10.8113 125.459 10.7687L125.392 10.3413H125.118L125.238 10.1984H125.912L126.016 9.85924H125.392L125.489 9.54904H126.111L126.227 9.16649H124.372L124.258 9.54904ZM118.628 10.8631L118.784 10.3455H119.423L119.54 9.96057H118.9L118.998 9.64199H119.623L119.739 9.26925H118.174L118.061 9.64199H118.416L118.321 9.96057H117.965L117.847 10.3521H118.202L117.995 11.0368C117.967 11.1275 118.008 11.162 118.034 11.2041C118.061 11.2452 118.088 11.2723 118.148 11.2877C118.211 11.3017 118.254 11.3101 118.312 11.3101H119.033L119.162 10.8836L118.842 10.9275C118.78 10.9275 118.61 10.9201 118.628 10.8631ZM118.702 8.38541L118.539 8.67828C118.505 8.74226 118.474 8.78196 118.445 8.80026C118.421 8.81568 118.372 8.82214 118.301 8.82214H118.216L118.103 9.1968H118.384C118.519 9.1968 118.623 9.14729 118.672 9.12254C118.725 9.09408 118.739 9.11034 118.78 9.07064L118.875 8.98848H119.752L119.868 8.5984H119.227L119.339 8.38541H118.702ZM119.996 10.8706C119.981 10.8491 119.992 10.8112 120.015 10.7322L120.254 9.93903H121.107C121.231 9.93724 121.321 9.9358 121.379 9.93162C121.442 9.92504 121.51 9.90268 121.584 9.8625C121.661 9.8204 121.7 9.77604 121.733 9.72509C121.77 9.67427 121.829 9.56305 121.88 9.39157L122.182 8.38777L121.297 8.39291C121.297 8.39291 121.025 8.43309 120.905 8.47746C120.784 8.52697 120.611 8.66521 120.611 8.66521L120.691 8.39004H120.144L119.379 10.9275C119.352 11.0261 119.334 11.0976 119.329 11.1405C119.328 11.1868 119.388 11.2326 119.426 11.2671C119.472 11.3017 119.54 11.2961 119.605 11.3017C119.673 11.3068 119.77 11.3101 119.904 11.3101H120.324L120.453 10.8748L120.077 10.9103C120.037 10.9103 120.008 10.8888 119.996 10.8706ZM120.409 9.40329H121.304L121.247 9.58171C121.239 9.5859 121.22 9.57286 121.129 9.58362H120.354L120.409 9.40329ZM120.588 8.80488H121.491L121.426 9.01978C121.426 9.01978 121.001 9.01559 120.933 9.02815C120.633 9.08005 120.457 9.24029 120.457 9.24029L120.588 8.80488ZM121.267 10.1792C121.26 10.2059 121.248 10.2221 121.232 10.2343C121.214 10.246 121.184 10.2502 121.14 10.2502H121.013L121.02 10.0329H120.49L120.468 11.0952C120.467 11.1719 120.475 11.2162 120.531 11.2518C120.587 11.2961 120.76 11.3017 120.992 11.3017H121.325L121.445 10.9041L121.155 10.92L121.059 10.9256C121.046 10.92 121.033 10.9149 121.019 10.9009C121.007 10.8888 120.987 10.8962 120.99 10.8196L120.992 10.5473L121.296 10.5347C121.46 10.5347 121.53 10.4814 121.59 10.4306C121.647 10.3819 121.665 10.3259 121.687 10.2502L121.738 10.0091H121.321L121.267 10.1792Z" fill="white"/>
</g>
</g>
<defs>
<linearGradient id="paint0_linear_2_5157" x1="8.98437" y1="15.1429" x2="13.6013" y2="1.32969" gradientUnits="userSpaceOnUse">
<stop stop-color="#222357"/>
<stop offset="1" stop-color="#254AA5"/>
</linearGradient>
<linearGradient id="paint1_linear_2_5157" x1="100.182" y1="7.81672" x2="103.708" y2="7.81672" gradientUnits="userSpaceOnUse">
<stop stop-color="#58B03A"/>
<stop offset="1" stop-color="#55B330"/>
</linearGradient>
<linearGradient id="paint2_linear_2_5157" x1="92.2275" y1="8.08195" x2="95.768" y2="8.08195" gradientUnits="userSpaceOnUse">
<stop stop-color="#0F6EB6"/>
<stop offset="1" stop-color="#006DBA"/>
</linearGradient>
<linearGradient id="paint3_linear_2_5157" x1="96.2491" y1="7.89983" x2="99.7771" y2="7.89983" gradientUnits="userSpaceOnUse">
<stop stop-color="#DE0D3D"/>
<stop offset="1" stop-color="#E30138"/>
</linearGradient>
<clipPath id="clip0_2_5157">
<rect x="44" y="0.857147" width="20" height="14.2857" rx="2.14286" fill="white"/>
</clipPath>
<clipPath id="clip1_2_5157">
<rect x="110" y="0.857147" width="20" height="14.2857" rx="2.14286" fill="white"/>
</clipPath>
<clipPath id="clip2_2_5157">
<rect x="109.286" y="0.857147" width="21.2625" height="14.2857" rx="2.14286" fill="white"/>
</clipPath>
</defs>
</svg>
