<svg width="41" height="25" viewBox="0 0 41 25" fill="none" xmlns="http://www.w3.org/2000/svg">
<g clip-path="url(#clip0_2_5174)">
<path d="M23.9666 12.1268L21.154 8.8394C19.1667 6.51897 17.1779 4.19853 15.1875 1.8781C15.0618 1.7323 14.9785 1.5569 14.9463 1.36989C14.9141 1.18288 14.9341 0.99098 15.0043 0.813869C15.0744 0.636758 15.1921 0.480804 15.3454 0.361998C15.4987 0.243191 15.6821 0.165805 15.8766 0.137774C16.0395 0.117009 16.2037 0.107214 16.368 0.108462C18.3832 0.108462 20.3983 0.118538 22.4134 0.100219C23.0303 0.0938071 23.4694 0.283411 23.8829 0.751467C26.4551 3.6459 29.0595 6.51469 31.6526 9.39081C32.1982 9.99717 32.7441 10.6029 33.2903 11.2081C33.834 11.8117 33.8454 12.3549 33.3084 12.9585C30.7895 15.7851 28.269 18.6112 25.7469 21.4366L25.3496 21.8854C25.4931 21.8964 25.5844 21.9102 25.6756 21.9102C26.6946 21.9102 27.7136 21.9184 28.7316 21.9019C28.8975 21.8973 29.0553 21.8318 29.1726 21.7187C31.9057 18.5678 34.6321 15.4123 37.3519 12.2523C37.4004 12.1955 37.447 12.1359 37.5116 12.0498C37.0471 11.5045 36.5829 10.9608 36.1191 10.4185L28.8371 1.92206C28.415 1.42928 28.473 0.75971 28.9692 0.364931C29.201 0.183131 29.4975 0.0962496 29.7951 0.122971C30.0927 0.149693 30.3675 0.287883 30.5604 0.507821C33.7054 4.05564 36.8507 7.60285 39.9963 11.1495C40.6274 11.8612 40.636 12.3402 39.9963 13.0464C36.9023 16.4831 33.7931 19.907 30.7201 23.361C30.2515 23.8877 29.7696 24.1039 29.0567 24.0938C27.0092 24.0581 24.9608 24.0846 22.9124 24.0801C21.9838 24.0801 21.4296 23.2749 21.8127 22.4936C21.8855 22.3642 21.9746 22.244 22.0779 22.1355C24.8876 18.8686 27.698 15.6016 30.5091 12.3347C30.5708 12.2614 30.6298 12.1863 30.7077 12.0911C30.0905 11.3754 29.4758 10.6619 28.8637 9.95046C26.7206 7.46638 24.5784 4.98198 22.4372 2.49729C22.384 2.42593 22.313 2.36864 22.2308 2.3307C22.1485 2.29276 22.0577 2.27539 21.9667 2.2802C20.8403 2.29028 19.713 2.28479 18.5096 2.28479C18.6255 2.4231 18.6997 2.51836 18.7824 2.60812L26.5073 11.1998C27.07 11.8263 27.0777 12.342 26.514 12.9713C23.7182 16.113 20.9217 19.2533 18.1246 22.392C17.1399 23.4966 15.888 24.0636 14.3776 24.0672C11.4091 24.0746 8.44063 24.0828 5.47213 24.0672C4.86539 24.0646 4.26514 23.9468 3.70566 23.7206C3.14617 23.4944 2.63841 23.1642 2.21137 22.7488C1.78433 22.3335 1.44638 21.8412 1.21682 21.3C0.98726 20.7588 0.870587 20.1793 0.873465 19.5946C0.873465 14.5788 0.873465 9.56331 0.873465 4.54812C0.873465 2.34982 2.39431 0.579266 4.58813 0.189067C4.85765 0.142683 5.13086 0.119083 5.40464 0.118538C7.28859 0.104798 9.17254 0.0938064 11.0565 0.0965542C11.8949 0.0965542 12.4081 0.776198 12.1781 1.54286C12.1318 1.71816 12.0343 1.87699 11.8971 2.00054C11.76 2.12408 11.589 2.20715 11.4044 2.2399C11.2219 2.27447 11.0361 2.28982 10.8502 2.2857C9.09839 2.2857 7.34562 2.2857 5.59284 2.2857C4.15849 2.2857 3.15474 3.25479 3.15474 4.63422C3.15474 9.60667 3.15474 14.5797 3.15474 19.5534C3.15474 20.9924 4.0796 21.8818 5.57383 21.8827C8.49766 21.8827 11.4224 21.8763 14.3472 21.8873C14.7154 21.8991 15.0813 21.8283 15.4162 21.6805C15.7511 21.5326 16.0457 21.3118 16.2768 21.0354C18.8115 18.1129 21.3441 15.1867 23.8744 12.2568C23.901 12.2275 23.9228 12.19 23.9666 12.1268Z" fill="white"/>
</g>
<defs>
<clipPath id="clip0_2_5174">
<rect width="39.6" height="24" fill="white" transform="translate(0.869507 0.0957184)"/>
</clipPath>
</defs>
</svg>
