<svg width="40" height="25" viewBox="0 0 40 25" fill="none" xmlns="http://www.w3.org/2000/svg">
<path d="M24.7608 2.71239L14.5289 2.74757L14.839 21.4796L25.0709 21.4444L24.7608 2.71239Z" fill="#FF5F00"/>
<path d="M15.2025 12.1511C15.1392 8.34113 16.8459 4.95585 19.5192 2.76C17.5013 1.17658 14.9716 0.22442 12.2294 0.233812C5.73281 0.256062 0.565446 5.60798 0.675006 12.2008C0.784566 18.7937 6.12921 24.1096 12.6258 24.0873C15.368 24.0779 17.8658 23.1086 19.8308 21.5115C17.0854 19.3674 15.2658 15.961 15.2025 12.1511Z" fill="#EB001B"/>
<path d="M38.9249 11.9907C39.0344 18.5835 33.867 23.9355 27.3705 23.9577C24.6282 23.9671 22.0985 23.015 20.0807 21.4315C22.7866 19.2356 24.4607 15.8504 24.3974 12.0405C24.3341 8.23052 22.515 4.85731 19.7691 2.68002C21.7341 1.08296 24.2318 0.113583 26.9741 0.104191C33.4706 0.0819414 38.8158 5.43098 38.9249 11.9907Z" fill="#F79E1B"/>
</svg>
