<svg width="62" height="24" viewBox="0 0 62 24" fill="none" xmlns="http://www.w3.org/2000/svg">
<path d="M28.9511 11.6725V18.7485H26.6903V1.27484H32.6838C34.2028 1.27484 35.4981 1.77777 36.5578 2.78361C37.6411 3.78946 38.1828 5.01753 38.1828 6.46782C38.1828 7.9532 37.6411 9.18127 36.5578 10.1754C35.5098 11.1696 34.2146 11.6608 32.6838 11.6608H28.9511V11.6725ZM28.9511 3.42689V9.52045H32.7309C33.6258 9.52045 34.3794 9.21635 34.9682 8.61986C35.5687 8.02337 35.8749 7.29823 35.8749 6.47951C35.8749 5.6725 35.5687 4.95905 34.9682 4.36256C34.3794 3.74268 33.6376 3.43858 32.7309 3.43858H28.9511V3.42689Z" fill="white"/>
<path d="M44.0939 6.39761C45.7659 6.39761 47.0847 6.84206 48.0503 7.73094C49.0158 8.61983 49.4986 9.83621 49.4986 11.3801V18.7485H47.3438V17.0877H47.2496C46.3193 18.4561 45.0712 19.1344 43.5169 19.1344C42.1863 19.1344 41.0794 18.7485 40.1845 17.9649C39.2896 17.1812 38.8422 16.2105 38.8422 15.0409C38.8422 13.8011 39.3132 12.8187 40.2552 12.0935C41.1972 11.3567 42.4571 10.9941 44.0232 10.9941C45.3656 10.9941 46.4724 11.2397 47.332 11.7309V11.2163C47.332 10.4327 47.0259 9.77773 46.4018 9.22802C45.7777 8.67831 45.0476 8.40931 44.2116 8.40931C42.9517 8.40931 41.9508 8.93562 41.2207 9.99995L39.2307 8.76018C40.3258 7.18124 41.9508 6.39761 44.0939 6.39761ZM41.1736 15.076C41.1736 15.6608 41.4209 16.152 41.9272 16.538C42.4218 16.9239 43.0105 17.1227 43.6817 17.1227C44.6355 17.1227 45.4833 16.7719 46.2251 16.0701C46.967 15.3684 47.3438 14.5497 47.3438 13.6023C46.6373 13.0526 45.6599 12.7719 44.4 12.7719C43.4815 12.7719 42.7162 12.9941 42.1039 13.4268C41.4798 13.883 41.1736 14.4327 41.1736 15.076Z" fill="white"/>
<path d="M61.7918 6.78363L54.2558 24H51.9243L54.7268 17.9766L49.7577 6.78363H52.2187L55.7983 15.3684H55.8454L59.3308 6.78363H61.7918Z" fill="white"/>
<path d="M19.9587 10.2456C19.9587 9.5134 19.8927 8.81281 19.7703 8.13913H10.2937V11.9988L15.7514 11.9999C15.5301 13.2842 14.8177 14.3789 13.7261 15.1087V17.6128H16.9749C18.8718 15.8689 19.9587 13.2912 19.9587 10.2456Z" fill="#4285F4"/>
<path d="M13.7273 15.1088C12.8229 15.7146 11.6584 16.069 10.296 16.069C7.66427 16.069 5.43172 14.3076 4.63219 11.9333H1.28101V14.5158C2.94129 17.7883 6.35371 20.0339 10.296 20.0339C13.0208 20.0339 15.3098 19.1438 16.976 17.6117L13.7273 15.1088Z" fill="#34A853"/>
<path d="M4.31657 10.0176C4.31657 9.3509 4.42843 8.70646 4.63214 8.10061V5.51816H1.28096C0.594473 6.87137 0.208252 8.39886 0.208252 10.0176C0.208252 11.6363 0.59565 13.1638 1.28096 14.517L4.63214 11.9345C4.42843 11.3287 4.31657 10.6842 4.31657 10.0176Z" fill="#FABB05"/>
<path d="M10.296 3.96494C11.7832 3.96494 13.115 4.47371 14.1665 5.46786L17.0455 2.61055C15.2969 0.993013 13.0172 3.05176e-05 10.296 3.05176e-05C6.35488 3.05176e-05 2.94129 2.24564 1.28101 5.51815L4.63219 8.10061C5.43172 5.72634 7.66427 3.96494 10.296 3.96494Z" fill="#E94235"/>
</svg>
