<svg width="50" height="13" viewBox="0 0 50 13" fill="none" xmlns="http://www.w3.org/2000/svg">
<path fill-rule="evenodd" clip-rule="evenodd" d="M2.56599 11.8515H0.0639648V0.313881H2.56599V11.8515ZM8.8125 0.313881H6.36474C6.36474 2.43709 5.44234 4.38586 3.83413 5.66081L2.86437 6.42941L6.62188 11.8519H9.71128L6.25387 6.86238C7.89274 5.13527 8.8125 2.81168 8.8125 0.313881ZM12.8032 11.8488H10.4404V0.31653H12.8032V11.8488ZM19.9422 3.87058V4.38088C19.3047 3.92059 18.5351 3.65008 17.7051 3.65008C15.5085 3.65008 13.7277 5.53466 13.7277 7.85941C13.7277 10.1842 15.5085 12.0687 17.7051 12.0687C18.5351 12.0687 19.3047 11.7982 19.9422 11.338V11.8479H22.1991V3.87058H19.9422ZM19.9354 7.85985C19.9354 8.99338 19.0198 9.91235 17.8904 9.91235C16.7611 9.91235 15.8455 8.99338 15.8455 7.85985C15.8455 6.72631 16.7611 5.80757 17.8904 5.80757C19.0198 5.80757 19.9354 6.72631 19.9354 7.85985ZM43.7514 4.38088V3.87058H46.0081V11.8479H43.7514V11.338C43.1138 11.7982 42.3442 12.0687 41.5142 12.0687C39.3175 12.0687 37.5368 10.1842 37.5368 7.85941C37.5368 5.53466 39.3175 3.65008 41.5142 3.65008C42.3442 3.65008 43.1138 3.92059 43.7514 4.38088ZM41.6994 9.91235C42.8289 9.91235 43.7444 8.99338 43.7444 7.85985C43.7444 6.72631 42.8289 5.80757 41.6994 5.80757C40.57 5.80757 39.6545 6.72631 39.6545 7.85985C39.6545 8.99338 40.57 9.91235 41.6994 9.91235ZM46.9876 10.5179C46.9876 9.69009 47.6216 9.01909 48.4038 9.01909C49.1859 9.01909 49.82 9.69009 49.82 10.5179C49.82 11.3456 49.1859 12.0167 48.4038 12.0167C47.6216 12.0167 46.9876 11.3456 46.9876 10.5179ZM33.5264 3.65626C32.6249 3.65626 31.7717 3.95247 31.2013 4.76968V3.87129H28.9542V11.8481H31.2289V7.65602C31.2289 6.44294 31.9975 5.8489 32.923 5.8489C33.9148 5.8489 34.4851 6.47597 34.4851 7.63951V11.8481H36.7392V6.7752C36.7392 4.91877 35.3445 3.65626 33.5264 3.65626ZM25.6903 3.87085V4.90983C26.1427 4.2866 26.9856 3.87131 27.9021 3.87131V6.19258L27.8963 6.1924L27.8896 6.19206L27.883 6.19171L27.8753 6.19153C26.9824 6.19153 25.6955 6.86697 25.6955 8.12355V11.848H23.3797V3.87085H25.6903Z" fill="#17120F"/>
</svg>
