<svg width="209" height="35" viewBox="0 0 209 35" fill="none" xmlns="http://www.w3.org/2000/svg">
<path d="M144.812 28.8219V28.2798C144.956 28.3159 145.103 28.3362 145.251 28.3404C145.927 28.3404 146.047 27.7842 146.227 27.2697L144.722 23.0012H145.415L146.577 26.2691L147.767 23.0012H148.331L146.63 27.7575C146.543 28.0534 146.393 28.3272 146.191 28.5607C146.082 28.6816 145.945 28.7746 145.792 28.8318C145.639 28.889 145.475 28.9088 145.312 28.8895C145.143 28.8884 144.975 28.8651 144.812 28.8203V28.8219ZM200.785 25.1795C200.757 24.8957 200.787 24.6091 200.875 24.3376C200.962 24.0661 201.105 23.8156 201.293 23.6015C201.482 23.3875 201.712 23.2146 201.97 23.0936C202.229 22.9725 202.509 22.906 202.794 22.8981C204.145 22.8981 204.727 24.0286 204.693 25.2338H201.538C201.516 25.5727 201.577 25.9119 201.716 26.2219C201.824 26.4225 201.984 26.5899 202.18 26.7059C202.376 26.822 202.6 26.8823 202.828 26.8803C203.086 26.8851 203.339 26.8062 203.549 26.6553C203.759 26.5044 203.914 26.2897 203.992 26.0433L204.621 26.1707C204.489 26.5525 204.239 26.8822 203.906 27.1118C203.574 27.3413 203.177 27.4587 202.773 27.4467C202.488 27.4443 202.207 27.3819 201.949 27.2636C201.69 27.1452 201.459 26.9736 201.271 26.7599C201.083 26.5463 200.942 26.2953 200.858 26.0236C200.773 25.7518 200.747 25.4652 200.781 25.1827L200.785 25.1795ZM201.572 24.7405H203.958C203.979 24.5752 203.964 24.4075 203.915 24.2483C203.866 24.0891 203.784 23.942 203.675 23.8168C203.565 23.6916 203.43 23.5911 203.278 23.5218C203.127 23.4525 202.962 23.4161 202.796 23.415C202.459 23.4325 202.143 23.5809 201.914 23.8284C201.686 24.0759 201.563 24.403 201.572 24.7397L201.572 24.7405ZM196.585 26.7073C196.3 26.2516 196.158 25.7219 196.174 25.185C196.174 24.0994 196.712 22.9036 197.969 22.9036C198.221 22.9032 198.469 22.9676 198.69 23.0906C198.91 23.2136 199.095 23.3911 199.227 23.6061V21.4923H199.894V27.3594H199.286V26.5908H199.27C199.155 26.8536 198.964 27.0758 198.722 27.2285C198.479 27.3811 198.196 27.4572 197.91 27.4467C197.643 27.4467 197.382 27.3781 197.15 27.2475C196.917 27.1168 196.723 26.9286 196.585 26.701V26.7073ZM197.149 23.979C196.966 24.3264 196.878 24.7157 196.893 25.1079C196.893 25.8159 197.08 26.8882 198.014 26.8882C198.204 26.8826 198.39 26.8325 198.556 26.7419C198.723 26.6513 198.866 26.5227 198.974 26.3666C199.156 26.1068 199.246 25.7936 199.229 25.4769V24.783C199.247 24.4788 199.171 24.1763 199.009 23.9177C198.896 23.766 198.75 23.643 198.58 23.5586C198.411 23.4742 198.225 23.4306 198.036 23.4315C197.853 23.4353 197.674 23.4875 197.518 23.5827C197.362 23.6779 197.234 23.8128 197.147 23.9735L197.149 23.979ZM191.55 26.1259C191.554 25.8687 191.631 25.618 191.774 25.4038C191.916 25.1896 192.117 25.021 192.353 24.9183C192.886 24.7174 193.454 24.63 194.023 24.6619H194.586V24.4738C194.586 23.7123 194.257 23.422 193.485 23.422C192.934 23.422 192.414 23.5935 192.296 24.1914L191.672 24.0892C191.792 23.1821 192.751 22.8989 193.546 22.8989C193.786 22.8711 194.03 22.8948 194.261 22.9686C194.491 23.0424 194.704 23.1646 194.883 23.3269C195.181 23.7391 195.31 24.2497 195.244 24.7539V26.4382C195.231 26.7463 195.263 27.0547 195.337 27.3539H194.671L194.592 26.5397C194.459 26.8263 194.243 27.0657 193.971 27.2263C193.699 27.3868 193.384 27.461 193.069 27.4389C192.881 27.4618 192.691 27.4451 192.51 27.3898C192.329 27.3345 192.161 27.242 192.018 27.118C191.875 26.9941 191.76 26.8416 191.679 26.6703C191.599 26.499 191.555 26.3127 191.551 26.1235L191.55 26.1259ZM192.268 26.1605C192.268 26.7002 192.731 26.9212 193.212 26.9212C193.4 26.9161 193.584 26.8738 193.755 26.7969C193.926 26.7199 194.08 26.6098 194.207 26.473C194.335 26.3362 194.435 26.1753 194.5 25.9997C194.566 25.8241 194.596 25.6373 194.588 25.4501V25.1693H194.033C193.348 25.1693 192.268 25.2637 192.268 26.1652V26.1605ZM187.713 26.6113L187.465 27.3539H187.136V21.4899H187.802V23.7312H187.836C187.942 23.4818 188.121 23.2697 188.348 23.1218C188.575 22.9739 188.841 22.8968 189.112 22.9005C189.375 22.9034 189.634 22.9692 189.867 23.0924C190.099 23.2155 190.299 23.3925 190.449 23.6085C190.729 24.0633 190.871 24.5886 190.86 25.1221C190.86 26.2234 190.329 27.4397 189.047 27.4397C188.77 27.4354 188.5 27.3565 188.264 27.2112C188.029 27.0659 187.837 26.8597 187.709 26.6144L187.713 26.6113ZM187.806 24.8546V25.3777C187.784 25.7361 187.871 26.0927 188.056 26.4004C188.162 26.5523 188.303 26.6765 188.468 26.7628C188.632 26.8492 188.814 26.8951 189 26.8968C189.889 26.8968 190.145 25.9465 190.145 25.2283C190.145 24.51 189.926 23.4299 189 23.4299C188.655 23.4667 188.338 23.6362 188.116 23.9024C187.894 24.1687 187.783 24.511 187.809 24.857L187.806 24.8546ZM182.318 26.1212C182.322 25.864 182.399 25.6132 182.542 25.3991C182.684 25.1849 182.886 25.0163 183.121 24.9136C183.654 24.7122 184.222 24.6248 184.79 24.6571H185.355V24.4715C185.355 23.71 185.026 23.4197 184.254 23.4197C183.703 23.4197 183.185 23.5912 183.064 24.1891L182.44 24.0868C182.561 23.1797 183.518 22.8965 184.314 22.8965C184.555 22.8686 184.798 22.8923 185.029 22.9661C185.26 23.0399 185.472 23.1621 185.651 23.3245C185.948 23.7373 186.076 24.2476 186.01 24.7515V26.4366C185.997 26.7448 186.029 27.0533 186.105 27.3523H185.439L185.36 26.5381C185.228 26.8247 185.011 27.0642 184.739 27.2247C184.467 27.3853 184.153 27.4595 183.838 27.4373C183.65 27.4603 183.459 27.4437 183.278 27.3884C183.097 27.3331 182.929 27.2404 182.786 27.1163C182.643 26.9922 182.527 26.8394 182.447 26.6679C182.366 26.4963 182.323 26.3098 182.319 26.1204L182.318 26.1212ZM183.036 26.1558C183.036 26.6955 183.497 26.9165 183.98 26.9165C184.167 26.9116 184.352 26.8694 184.523 26.7925C184.694 26.7156 184.848 26.6055 184.976 26.4686C185.104 26.3316 185.204 26.1706 185.269 25.9948C185.335 25.819 185.365 25.632 185.357 25.4446V25.163H184.802C184.116 25.163 183.036 25.2582 183.036 26.1597L183.036 26.1558ZM177.057 25.7695L177.716 25.6248C177.824 25.9929 178.056 26.3125 178.372 26.5295C178.688 26.7465 179.07 26.8476 179.452 26.8158C179.825 26.8294 180.192 26.7277 180.504 26.5247C180.616 26.4332 180.706 26.3183 180.768 26.188C180.83 26.0578 180.863 25.9154 180.864 25.7711C180.864 25.1803 180.377 24.9419 179.861 24.8129L178.886 24.5769C178.496 24.5169 178.13 24.354 177.825 24.1049C177.673 23.9677 177.552 23.8 177.469 23.6128C177.387 23.4256 177.345 23.2231 177.346 23.0185C177.346 21.8888 178.321 21.401 179.338 21.401C179.795 21.3756 180.247 21.5027 180.624 21.7623C181.001 22.0219 181.28 22.3993 181.419 22.8352L180.753 23.0153C180.662 22.7077 180.472 22.4389 180.211 22.2515C179.951 22.064 179.636 21.9685 179.315 21.98C178.76 21.98 178.057 22.2711 178.057 22.9138C178.057 23.5723 178.569 23.717 179.117 23.8476L179.996 24.0671C180.384 24.1291 180.75 24.2852 181.063 24.5218C181.239 24.6599 181.38 24.8368 181.475 25.0385C181.571 25.2403 181.618 25.4614 181.614 25.6846C181.617 25.9435 181.559 26.1996 181.445 26.432C181.33 26.6644 181.163 26.8665 180.956 27.0219C180.504 27.3246 179.967 27.4746 179.424 27.4499C178.895 27.4912 178.368 27.3469 177.934 27.0418C177.5 26.7367 177.186 26.2899 177.046 25.7782L177.057 25.7695ZM169.864 25.1465C169.828 24.8743 169.849 24.5975 169.927 24.3341C170.004 24.0706 170.135 23.8262 170.313 23.6167C170.49 23.4072 170.71 23.2371 170.957 23.1174C171.204 22.9978 171.473 22.9312 171.748 22.922C172.022 22.9128 172.296 22.9611 172.55 23.0639C172.805 23.1667 173.035 23.3217 173.226 23.5189C173.417 23.716 173.565 23.951 173.66 24.2087C173.754 24.4664 173.794 24.7411 173.776 25.0151C173.776 25.0623 173.77 25.1087 173.765 25.1551C173.795 25.4402 173.766 25.7285 173.679 26.0017C173.592 26.2748 173.448 26.5268 173.258 26.7415C173.068 26.9562 172.836 27.1289 172.575 27.2485C172.314 27.3682 172.032 27.4322 171.745 27.4365C170.445 27.4365 169.865 26.295 169.865 25.1488L169.864 25.1465ZM170.824 24.0608C170.67 24.4016 170.595 24.7727 170.604 25.1465C170.591 25.5569 170.676 25.9646 170.853 26.3351C170.953 26.5092 171.1 26.6525 171.276 26.7495C171.452 26.8465 171.651 26.8935 171.852 26.8854C172.052 26.8773 172.247 26.8144 172.415 26.7036C172.582 26.5927 172.716 26.4381 172.802 26.2565C172.965 25.909 173.04 25.5273 173.023 25.1441C173.045 24.7296 172.949 24.3173 172.747 23.9546C172.645 23.7981 172.504 23.6695 172.34 23.5804C172.175 23.4913 171.991 23.4444 171.803 23.4441C171.599 23.4456 171.4 23.5037 171.227 23.6121C171.054 23.7204 170.914 23.8747 170.824 24.0577V24.0608ZM165.692 25.1819C165.692 24.0538 166.256 22.9005 167.549 22.9005C167.967 22.8892 168.374 23.0394 168.684 23.3199C168.995 23.6005 169.185 23.9897 169.216 24.407L168.602 24.5171C168.601 24.2412 168.492 23.9765 168.299 23.7798C168.105 23.5832 167.842 23.4703 167.566 23.4653C166.66 23.4653 166.404 24.4156 166.404 25.1425C166.404 25.8458 166.618 26.8732 167.525 26.8732C168.175 26.8732 168.491 26.4012 168.603 25.812L169.219 25.9221C169.181 26.3395 168.988 26.7275 168.678 27.0095C168.368 27.2914 167.963 27.4469 167.544 27.4452C166.25 27.4389 165.693 26.3163 165.693 25.1811L165.692 25.1819ZM156.488 26.1259C156.492 25.8687 156.569 25.618 156.712 25.4038C156.854 25.1896 157.055 25.021 157.291 24.9183C157.824 24.7173 158.392 24.63 158.96 24.6619H159.524V24.4738C159.524 23.7115 159.195 23.422 158.423 23.422C157.872 23.422 157.352 23.5935 157.232 24.1914L156.609 24.0892C156.73 23.1821 157.687 22.8989 158.484 22.8989C158.724 22.8709 158.968 22.8945 159.199 22.9683C159.43 23.0422 159.642 23.1644 159.821 23.3269C160.119 23.7393 160.247 24.2499 160.18 24.7539V26.439C160.167 26.7472 160.199 27.0557 160.275 27.3547H159.608L159.529 26.5405C159.397 26.8271 159.181 27.0667 158.909 27.2274C158.638 27.388 158.324 27.4621 158.009 27.4397C157.82 27.4626 157.629 27.4457 157.448 27.3902C157.267 27.3347 157.099 27.2417 156.956 27.1173C156.813 26.9929 156.697 26.8398 156.617 26.6679C156.537 26.496 156.493 26.3093 156.49 26.1196L156.488 26.1259ZM157.207 26.1605C157.207 26.6994 157.67 26.9212 158.151 26.9212C158.339 26.9163 158.523 26.8741 158.694 26.7973C158.865 26.7204 159.019 26.6104 159.147 26.4736C159.276 26.3367 159.375 26.1758 159.441 26.0001C159.506 25.8244 159.536 25.6375 159.529 25.4501V25.1677H158.973C158.286 25.1677 157.209 25.2597 157.209 26.1558L157.207 26.1605ZM207.833 27.3563V21.4907H208.5V27.3571L207.833 27.3563ZM205.78 27.3563V21.4907H206.446V27.3571L205.78 27.3563ZM164.143 27.3563V24.6713C164.169 24.3979 164.128 24.1222 164.024 23.8681C163.942 23.7463 163.831 23.6466 163.702 23.5779C163.572 23.5093 163.427 23.4739 163.28 23.4748C163.108 23.4769 162.937 23.5174 162.782 23.5933C162.627 23.6692 162.49 23.7787 162.382 23.9137C162.129 24.2496 162.007 24.6659 162.039 25.0851V27.3618H161.373V23.0177H162.002V23.8209H162.018C162.129 23.5526 162.316 23.3229 162.556 23.1601C162.797 22.9973 163.08 22.9087 163.37 22.9052C163.617 22.8966 163.862 22.9549 164.079 23.0738C164.295 23.1928 164.476 23.368 164.601 23.581C164.782 24.0158 164.852 24.4884 164.806 24.9569V27.361L164.143 27.3563ZM151.556 27.3563V21.4907H153.772C154.193 21.4503 154.617 21.5466 154.979 21.7653C155.171 21.8904 155.327 22.0617 155.435 22.2634C155.543 22.4651 155.598 22.6907 155.595 22.9193C155.607 23.2261 155.51 23.5271 155.32 23.7685C155.131 24.0099 154.862 24.176 154.561 24.2371V24.2512C154.846 24.3157 155.107 24.4588 155.314 24.6641C155.522 24.8695 155.668 25.1289 155.735 25.413C155.803 25.697 155.79 25.9944 155.697 26.2712C155.604 26.5481 155.436 26.7935 155.211 26.9794C154.791 27.2768 154.277 27.4106 153.765 27.3555L151.556 27.3563ZM152.29 26.7332H153.728C154.06 26.7617 154.392 26.6786 154.672 26.4972C154.791 26.4044 154.886 26.2848 154.95 26.1481C155.015 26.0114 155.045 25.8614 155.041 25.7105C155.042 25.5356 155.005 25.3625 154.931 25.2041C154.857 25.0456 154.748 24.9057 154.613 24.7948C154.318 24.6122 153.97 24.5348 153.625 24.5753H152.288L152.29 26.7332ZM152.29 24.005H153.429C153.799 24.0511 154.175 23.9739 154.497 23.7855C154.613 23.6939 154.707 23.5769 154.771 23.4436C154.835 23.3102 154.867 23.164 154.866 23.0161C154.874 22.858 154.837 22.7009 154.759 22.563C154.682 22.4252 154.566 22.3122 154.427 22.2373C154.174 22.1159 153.893 22.0656 153.614 22.0918H152.287L152.29 24.005ZM140.097 27.3578V21.4907H142.313C142.734 21.4508 143.157 21.5467 143.52 21.7645C143.712 21.8897 143.868 22.0612 143.976 22.2631C144.083 22.4649 144.138 22.6907 144.135 22.9193C144.147 23.2259 144.05 23.5268 143.86 23.7681C143.671 24.0094 143.402 24.1754 143.101 24.2363V24.2512C143.447 24.315 143.759 24.4997 143.982 24.7724C144.204 25.045 144.322 25.3879 144.315 25.7396C144.326 25.9764 144.28 26.2124 144.182 26.4281C144.084 26.6438 143.936 26.833 143.75 26.9802C143.331 27.278 142.817 27.4123 142.306 27.3578H140.097ZM140.831 26.7348H142.269C142.601 26.7636 142.933 26.6805 143.213 26.4988C143.332 26.4062 143.428 26.2866 143.492 26.1498C143.556 26.013 143.586 25.863 143.581 25.7121C143.583 25.5372 143.545 25.3641 143.471 25.2056C143.397 25.0472 143.288 24.9073 143.153 24.7964C142.858 24.6139 142.51 24.5363 142.165 24.5761H140.828L140.831 26.7348ZM140.831 24.0066H141.969C142.34 24.0531 142.716 23.9756 143.039 23.7863C143.155 23.6951 143.249 23.5783 143.313 23.445C143.377 23.3117 143.409 23.1655 143.407 23.0177C143.415 22.8595 143.378 22.7023 143.301 22.5642C143.223 22.4262 143.108 22.3131 142.968 22.2381C142.716 22.1173 142.435 22.0676 142.156 22.0941H140.826L140.831 24.0066Z" fill="black"/>
<path d="M132.076 34.626C132.056 34.626 132.037 34.6222 132.019 34.6147C132.001 34.6073 131.985 34.5964 131.971 34.5827C131.958 34.569 131.947 34.5526 131.939 34.5347C131.932 34.5168 131.928 34.4975 131.928 34.4781V14.2689C131.928 14.2294 131.944 14.1916 131.972 14.1637C131.999 14.1358 132.037 14.1202 132.077 14.1202C132.116 14.1202 132.154 14.1358 132.182 14.1637C132.21 14.1916 132.225 14.2294 132.225 14.2689V34.4789C132.225 34.5181 132.21 34.5557 132.182 34.5835C132.154 34.6113 132.117 34.6272 132.077 34.6276L132.076 34.626Z" fill="black"/>
<path d="M79.8835 28.6084C78.9691 27.6937 78.4554 26.4533 78.4554 25.1599C78.4554 23.8666 78.9691 22.6262 79.8835 21.7115L83.1436 18.4515C83.2505 18.348 83.3937 18.2907 83.5425 18.2919C83.6913 18.2931 83.8336 18.3527 83.9388 18.4578C84.0441 18.563 84.1038 18.7052 84.1051 18.854C84.1065 19.0028 84.0493 19.1461 83.946 19.2531L80.686 22.5139C79.9948 23.2172 79.6094 24.1649 79.6136 25.1509C79.6179 26.1369 80.0114 27.0814 80.7086 27.7786C81.4057 28.4759 82.3501 28.8696 83.3361 28.8739C84.3221 28.8783 85.2699 28.4931 85.9733 27.802L87.1903 26.585C87.2431 26.5322 87.3058 26.4903 87.3748 26.4616C87.4438 26.433 87.5177 26.4183 87.5924 26.4182C87.6671 26.4182 87.7411 26.4329 87.8101 26.4614C87.8791 26.49 87.9418 26.5318 87.9947 26.5846C88.0475 26.6374 88.0894 26.7001 88.1181 26.7691C88.1467 26.8381 88.1614 26.9121 88.1615 26.9867C88.1615 27.0614 88.1468 27.1354 88.1183 27.2044C88.0897 27.2735 88.0479 27.3362 87.9951 27.389L86.7781 28.6076C85.8635 29.5216 84.6234 30.035 83.3304 30.035C82.0374 30.035 80.7973 29.5216 79.8827 28.6076L79.8835 28.6084ZM105.973 30.0347C105.897 30.0349 105.821 30.02 105.75 29.9909C105.679 29.9618 105.615 29.919 105.561 29.865C105.506 29.811 105.463 29.7469 105.434 29.6763C105.404 29.6056 105.389 29.5298 105.389 29.4533C105.389 29.3765 105.404 29.3005 105.433 29.2295C105.462 29.1585 105.505 29.094 105.56 29.0398C105.614 28.9855 105.678 28.9424 105.749 28.9131C105.82 28.8837 105.896 28.8687 105.973 28.8688H112.131C112.285 28.8688 112.433 28.9301 112.542 29.0393C112.651 29.1485 112.713 29.2965 112.713 29.4509C112.713 29.6053 112.651 29.7534 112.542 29.8626C112.433 29.9718 112.285 30.0331 112.131 30.0331L105.973 30.0347ZM46.5445 29.956C46.4092 29.8969 46.301 29.7894 46.2408 29.6547C46.2066 29.586 46.1879 29.5107 46.1861 29.434C46.1844 29.3573 46.1995 29.2812 46.2306 29.211L49.95 19.2759C49.9969 19.1666 50.0758 19.0741 50.1764 19.0108C50.277 18.9474 50.3945 18.9161 50.5133 18.9211C50.6305 18.9125 50.7471 18.9437 50.8444 19.0094C50.9418 19.0752 51.0141 19.1719 51.0498 19.2838L54.7709 29.2212C54.8004 29.2887 54.8157 29.3615 54.8157 29.4352C54.8157 29.5089 54.8004 29.5817 54.7709 29.6492C54.715 29.7871 54.6075 29.8978 54.4711 29.9576L54.4137 29.9725L54.2768 29.989C54.1569 29.9972 54.0377 29.9652 53.938 29.8981C53.8383 29.831 53.7638 29.7326 53.7261 29.6185L50.5196 21.0578L47.3005 29.6193C47.2638 29.7308 47.1917 29.8274 47.0951 29.8942C46.9986 29.9611 46.8829 29.9947 46.7655 29.9898L46.5445 29.956ZM119.102 29.8207C119.05 29.7692 119.008 29.7079 118.981 29.6404C118.953 29.5728 118.938 29.5004 118.939 29.4273V20.0099H115.898C115.822 20.0106 115.747 19.9952 115.678 19.9645C115.608 19.9338 115.546 19.8887 115.495 19.8321C115.393 19.7244 115.337 19.5815 115.338 19.4332C115.338 19.3594 115.352 19.2862 115.38 19.2179C115.408 19.1496 115.45 19.0876 115.502 19.0354C115.554 18.9831 115.616 18.9418 115.684 18.9137C115.753 18.8856 115.826 18.8712 115.9 18.8715H123.102C123.176 18.8714 123.249 18.8859 123.317 18.914C123.385 18.9422 123.447 18.9835 123.499 19.0356C123.551 19.0877 123.593 19.1495 123.621 19.2176C123.649 19.2857 123.664 19.3587 123.664 19.4325C123.664 19.5809 123.608 19.7239 123.506 19.8321C123.455 19.8876 123.392 19.9318 123.323 19.9621C123.254 19.9925 123.179 20.0082 123.103 20.0083H120.066V29.4242C120.065 29.5356 120.032 29.6444 119.969 29.7367C119.907 29.829 119.819 29.9008 119.716 29.9429C119.612 29.985 119.499 29.9956 119.39 29.9732C119.281 29.9509 119.181 29.8967 119.102 29.8175L119.102 29.8207ZM101.341 29.8207C101.289 29.7692 101.248 29.7079 101.22 29.6404C101.192 29.5728 101.178 29.5004 101.178 29.4273V21.1364L98.0961 25.4782C98.0475 25.5565 97.9791 25.6207 97.8977 25.6642C97.8164 25.7077 97.725 25.729 97.6328 25.726C97.5317 25.7334 97.4304 25.7135 97.3397 25.6684C97.2489 25.6233 97.1719 25.5546 97.1167 25.4695L94.0431 21.1506V29.4258C94.0431 29.499 94.0285 29.5715 94.0002 29.6391C93.9718 29.7066 93.9302 29.7678 93.8779 29.8191C93.7702 29.9212 93.6275 29.9781 93.4791 29.9781C93.3307 29.9781 93.1879 29.9212 93.0802 29.8191C93.024 29.7682 92.9792 29.706 92.9487 29.6366C92.9182 29.5672 92.9027 29.4921 92.9032 29.4163V19.4875C92.902 19.3989 92.923 19.3114 92.9642 19.233C93.0054 19.1545 93.0656 19.0876 93.1392 19.0383L93.1754 19.0029C93.2337 18.9555 93.3015 18.9211 93.3742 18.9021C93.4469 18.8831 93.5228 18.8799 93.5968 18.8927C93.6708 18.9055 93.7413 18.9341 93.8033 18.9764C93.8654 19.0188 93.9177 19.074 93.9566 19.1382L97.6171 24.2084L101.26 19.1406C101.302 19.0791 101.356 19.0276 101.42 18.9895C101.483 18.9514 101.555 18.9278 101.628 18.9203C101.771 18.8963 101.918 18.9242 102.042 18.999L102.076 19.0257C102.143 19.0832 102.197 19.1535 102.236 19.2324C102.275 19.3114 102.298 19.3973 102.303 19.4852V29.4147C102.303 29.4885 102.288 29.5616 102.26 29.6298C102.232 29.698 102.19 29.76 102.138 29.8122C102.086 29.8643 102.024 29.9057 101.956 29.9339C101.888 29.9621 101.815 29.9765 101.741 29.9764C101.667 29.9781 101.594 29.965 101.525 29.938C101.457 29.911 101.394 29.8706 101.341 29.8191V29.8207ZM68.3971 28.3449C67.8628 27.8278 67.4379 27.2085 67.1477 26.524C66.8576 25.8394 66.708 25.1034 66.708 24.3599C66.708 23.6163 66.8576 22.8804 67.1477 22.1958C67.4379 21.5112 67.8628 20.892 68.3971 20.3749C69.4108 19.397 70.7421 18.8159 72.1485 18.7375C73.5548 18.659 74.9425 19.0886 76.0587 19.9477C76.1787 20.0465 76.2571 20.187 76.2781 20.3411C76.2902 20.4929 76.2442 20.6437 76.1494 20.763C76.0547 20.8823 75.9182 20.9612 75.7676 20.9838C75.694 20.9927 75.6194 20.9864 75.5483 20.9653C75.4773 20.9442 75.4113 20.9087 75.3546 20.8611C74.4617 20.1625 73.3461 19.8109 72.214 19.8712C71.0819 19.9315 70.01 20.3997 69.1964 21.1891C68.7636 21.5979 68.4202 22.0917 68.1876 22.6396C67.955 23.1875 67.8383 23.7777 67.8448 24.3729C67.8368 24.9662 67.9529 25.5547 68.1854 26.1007C68.418 26.6466 68.7621 27.1379 69.1956 27.5432C69.6075 27.9604 70.0986 28.2911 70.6401 28.516C71.1815 28.7409 71.7623 28.8555 72.3486 28.8531C73.4291 28.8926 74.487 28.5381 75.3255 27.8555C75.4563 27.7616 75.6184 27.7221 75.7778 27.7454C75.8527 27.7543 75.9246 27.7802 75.988 27.8211C76.0514 27.862 76.1046 27.9168 76.1436 27.9814C76.1926 28.037 76.2294 28.1023 76.2515 28.1731C76.2736 28.2438 76.2805 28.3184 76.2718 28.3921C76.2654 28.4695 76.2425 28.5446 76.2046 28.6125C76.1668 28.6803 76.1149 28.7393 76.0524 28.7854C75.0295 29.5801 73.7681 30.0056 72.4729 29.993C71.7171 30.0049 70.9665 29.8655 70.2655 29.5828C69.5644 29.3002 68.927 28.88 68.3908 28.3472L68.3971 28.3449ZM59.974 29.8207C59.922 29.7693 59.8807 29.708 59.8526 29.6405C59.8245 29.5729 59.8102 29.5005 59.8104 29.4273V24.6474L56.2467 19.8415C56.1985 19.7833 56.1632 19.7156 56.143 19.6428C56.1228 19.57 56.1182 19.4938 56.1295 19.4191C56.1407 19.3444 56.1676 19.2728 56.2082 19.2092C56.2489 19.1455 56.3025 19.091 56.3655 19.0493C56.4235 19.0007 56.4914 18.9649 56.5643 18.9446C56.6373 18.9242 56.7138 18.9197 56.7887 18.9313C56.8647 18.9405 56.9377 18.9664 57.0025 19.0072C57.0673 19.048 57.1221 19.1027 57.1632 19.1673L60.3563 23.5579L63.5708 19.1595C63.6116 19.098 63.6656 19.0464 63.7289 19.0084C63.7922 18.9705 63.8631 18.9471 63.9366 18.94C64.0147 18.9277 64.0946 18.9331 64.1704 18.9557C64.2463 18.9783 64.3161 19.0175 64.3748 19.0706C64.4337 19.1111 64.483 19.1641 64.5192 19.2259C64.5553 19.2876 64.5775 19.3565 64.584 19.4277C64.596 19.5026 64.5924 19.5791 64.5734 19.6524C64.5545 19.7258 64.5206 19.7945 64.4739 19.8541L60.9275 24.6529V29.4344C60.9267 29.545 60.8931 29.6529 60.8309 29.7444C60.7688 29.8359 60.6808 29.9068 60.5783 29.9483C60.4758 29.9897 60.3632 29.9998 60.2549 29.9772C60.1467 29.9547 60.0475 29.9004 59.9701 29.8215L59.974 29.8207ZM37.6321 29.8207C37.5802 29.7692 37.5391 29.7079 37.5111 29.6404C37.4831 29.5728 37.4689 29.5004 37.4692 29.4273V24.8276C37.4691 24.7544 37.4836 24.6819 37.5118 24.6143C37.5401 24.5468 37.5815 24.4856 37.6336 24.4342C37.6851 24.3822 37.7463 24.3409 37.8139 24.3128C37.8814 24.2847 37.9538 24.2704 38.027 24.2706H41.0605C41.3398 24.2692 41.616 24.2118 41.8727 24.1018C42.1294 23.9919 42.3615 23.8315 42.5552 23.6302C42.7563 23.4373 42.9155 23.205 43.023 22.9479C43.1305 22.6907 43.1838 22.4142 43.1798 22.1355C43.1839 21.8568 43.1306 21.5803 43.0231 21.3231C42.9157 21.066 42.7564 20.8337 42.5552 20.6408C42.3624 20.4395 42.1302 20.2802 41.873 20.1728C41.6157 20.0655 41.3391 20.0124 41.0605 20.017H38.0262C37.9504 20.0177 37.8752 20.0023 37.8058 19.9718C37.7363 19.9413 37.6742 19.8963 37.6234 19.84C37.5213 19.7321 37.4649 19.5889 37.4661 19.4403C37.4652 19.4034 37.4684 19.3664 37.4755 19.3302C37.4763 19.3258 37.4763 19.3212 37.4755 19.3168C37.4985 19.2132 37.551 19.1184 37.6266 19.0438C37.6471 19.0243 37.6692 19.0064 37.6926 18.9903C37.7872 18.9186 37.9028 18.8799 38.0215 18.8802H41.0542C41.4823 18.8743 41.9072 18.9561 42.3025 19.1206C42.6979 19.2851 43.0553 19.5289 43.3529 19.8368C43.6594 20.1347 43.9021 20.492 44.066 20.8868C44.23 21.2816 44.3117 21.7057 44.3063 22.1332C44.3115 22.5606 44.2296 22.9846 44.0657 23.3794C43.9018 23.7741 43.6593 24.1314 43.3529 24.4295C43.0559 24.7356 42.6997 24.9779 42.306 25.1417C41.9122 25.3055 41.4892 25.3873 41.0628 25.3822L38.6044 25.4113V29.4344C38.6053 29.5102 38.5901 29.5853 38.5597 29.6548C38.5293 29.7242 38.4845 29.7864 38.4282 29.8372C38.3199 29.9391 38.1765 29.9955 38.0278 29.9945C37.9544 29.9943 37.8818 29.9795 37.8143 29.9508C37.7467 29.9222 37.6856 29.8804 37.6344 29.8278L37.6321 29.8207ZM50.1184 28.5809C49.9691 28.5811 49.8257 28.5223 49.7195 28.4172C49.6151 28.3129 49.556 28.1715 49.5551 28.0239C49.5558 27.9495 49.5711 27.876 49.6003 27.8075C49.6295 27.7391 49.6718 27.677 49.725 27.625C49.8292 27.5199 49.9704 27.4598 50.1184 27.4575H50.8595C50.9327 27.4579 51.0051 27.4729 51.0726 27.5013C51.1401 27.5298 51.2013 27.5713 51.2528 27.6235C51.3053 27.6747 51.347 27.7358 51.3755 27.8034C51.404 27.8709 51.4187 27.9435 51.4188 28.0168C51.4189 28.0906 51.4045 28.1636 51.3763 28.2318C51.3482 28.3 51.3069 28.362 51.2548 28.4142C51.2027 28.4664 51.1409 28.5079 51.0728 28.5362C51.0047 28.5645 50.9316 28.5792 50.8579 28.5793L50.1184 28.5809ZM84.4259 27.1066C84.3196 27 84.2599 26.8556 84.2599 26.705C84.2599 26.5544 84.3196 26.41 84.4259 26.3034L85.834 24.8976C85.941 24.793 86.0848 24.7348 86.2343 24.7356C86.3839 24.7365 86.5271 24.7962 86.6328 24.902C86.7386 25.0077 86.7984 25.1509 86.7992 25.3005C86.8 25.45 86.7418 25.5939 86.6372 25.7008L85.2314 27.1066C85.179 27.1595 85.1166 27.2014 85.0479 27.23C84.9792 27.2587 84.9055 27.2734 84.831 27.2734C84.7566 27.2734 84.6828 27.2587 84.6141 27.23C84.5454 27.2014 84.483 27.1595 84.4306 27.1066H84.4259ZM88.3923 26.187C88.286 26.0803 88.2263 25.9359 88.2263 25.7854C88.2263 25.6348 88.286 25.4904 88.3923 25.3838L88.6661 25.1147C88.7186 25.061 88.7813 25.0183 88.8505 24.9889C88.9196 24.9596 88.9939 24.9443 89.069 24.9439C89.1441 24.9435 89.2186 24.958 89.2881 24.9865C89.3575 25.0151 89.4207 25.0571 89.4738 25.1103C89.5269 25.1634 89.569 25.2265 89.5975 25.296C89.6261 25.3654 89.6406 25.4399 89.6401 25.515C89.6397 25.5901 89.6244 25.6644 89.5951 25.7336C89.5658 25.8027 89.523 25.8654 89.4693 25.9179L89.1995 26.187C89.1468 26.2396 89.0842 26.2812 89.0154 26.3094C88.9465 26.3376 88.8727 26.3519 88.7983 26.3514C88.6483 26.3505 88.5048 26.2906 88.3986 26.1846L88.3923 26.187ZM83.5629 24.9204C83.5099 24.8678 83.4678 24.8053 83.4391 24.7363C83.4103 24.6674 83.3955 24.5935 83.3955 24.5188C83.3955 24.4441 83.4103 24.3702 83.4391 24.3013C83.4678 24.2323 83.5099 24.1698 83.5629 24.1172L85.4958 22.1835C85.5466 22.124 85.6092 22.0756 85.6797 22.0414C85.7501 22.0072 85.8268 21.988 85.9051 21.9849C85.9833 21.9818 86.0613 21.9949 86.1343 22.0234C86.2072 22.0518 86.2734 22.0951 86.3289 22.1504C86.3843 22.2057 86.4277 22.2719 86.4563 22.3448C86.4849 22.4176 86.4982 22.4956 86.4952 22.5739C86.4923 22.6521 86.4732 22.7289 86.4391 22.7994C86.4051 22.8699 86.3568 22.9326 86.2974 22.9836L84.3653 24.9165C84.3129 24.9692 84.2505 25.011 84.1819 25.0396C84.1132 25.0682 84.0396 25.0829 83.9653 25.0829C83.8909 25.0829 83.8173 25.0682 83.7486 25.0396C83.68 25.011 83.6176 24.9692 83.5652 24.9165L83.5629 24.9204ZM105.955 25.0368C105.879 25.0371 105.803 25.0223 105.732 24.9933C105.661 24.9642 105.597 24.9214 105.543 24.8674C105.488 24.8134 105.445 24.7492 105.416 24.6785C105.387 24.6078 105.371 24.532 105.371 24.4555C105.371 24.3787 105.386 24.3028 105.416 24.2318C105.445 24.1609 105.488 24.0965 105.542 24.0422C105.596 23.9879 105.661 23.9448 105.732 23.9155C105.802 23.8861 105.878 23.871 105.955 23.871H112.109C112.264 23.871 112.413 23.9325 112.523 24.0422C112.632 24.1518 112.694 24.3004 112.694 24.4555C112.694 24.6101 112.632 24.7584 112.523 24.8677C112.413 24.977 112.265 25.0384 112.11 25.0384H105.954L105.955 25.0368ZM87.0314 24.4861C86.9254 24.3793 86.866 24.235 86.866 24.0845C86.866 23.9341 86.9254 23.7898 87.0314 23.6829L89.0256 21.6887C89.0782 21.635 89.1408 21.5922 89.21 21.5629C89.2791 21.5336 89.3534 21.5183 89.4285 21.5179C89.5037 21.5175 89.5781 21.5319 89.6476 21.5605C89.7171 21.5891 89.7802 21.6311 89.8333 21.6842C89.8864 21.7373 89.9285 21.8005 89.957 21.8699C89.9856 21.9394 90.0001 22.0139 89.9997 22.089C89.9992 22.1641 89.9839 22.2384 89.9546 22.3075C89.9253 22.3767 89.8825 22.4394 89.8288 22.4919L87.8362 24.4861C87.7839 24.5394 87.7215 24.5817 87.6527 24.6106C87.5839 24.6395 87.51 24.6543 87.4353 24.6543C87.3607 24.6543 87.2868 24.6395 87.218 24.6106C87.1492 24.5817 87.0868 24.5394 87.0345 24.4861H87.0314ZM81.2138 24.2132C81.1075 24.1065 81.0478 23.9621 81.0478 23.8116C81.0478 23.661 81.1075 23.5166 81.2138 23.41L88.3428 16.2818C88.4498 16.1753 88.5948 16.1156 88.7458 16.116C88.8968 16.1164 89.0415 16.1767 89.148 16.2837C89.2545 16.3908 89.3141 16.5357 89.3137 16.6867C89.3134 16.8377 89.253 16.9824 89.146 17.0889L82.0178 24.2171C81.9653 24.2698 81.9029 24.3117 81.8342 24.3402C81.7655 24.3686 81.6918 24.3832 81.6174 24.3831C81.468 24.3818 81.325 24.3219 81.2193 24.2163L81.2138 24.2132ZM86.7018 21.7744C86.5954 21.6678 86.5357 21.5234 86.5357 21.3728C86.5357 21.2223 86.5954 21.0778 86.7018 20.9712L87.1085 20.5645C87.161 20.5108 87.2237 20.4681 87.2928 20.4387C87.362 20.4094 87.4363 20.3941 87.5114 20.3937C87.5865 20.3933 87.6609 20.4078 87.7304 20.4363C87.7999 20.4649 87.863 20.5069 87.9161 20.56C87.9693 20.6132 88.0113 20.6763 88.0399 20.7458C88.0684 20.8152 88.0829 20.8897 88.0825 20.9648C88.0821 21.0399 88.0668 21.1142 88.0374 21.1834C88.0081 21.2525 87.9654 21.3152 87.9117 21.3677L87.505 21.7736C87.4527 21.8262 87.3905 21.8679 87.3221 21.8964C87.2536 21.9249 87.1802 21.9395 87.1061 21.9395C87.032 21.9395 86.9586 21.9249 86.8901 21.8964C86.8217 21.8679 86.7595 21.8262 86.7073 21.7736L86.7018 21.7744ZM88.3168 20.1601C88.2638 20.1076 88.2217 20.045 88.193 19.9761C88.1643 19.9071 88.1495 19.8332 88.1495 19.7585C88.1495 19.6839 88.1643 19.6099 88.193 19.541C88.2217 19.4721 88.2638 19.4095 88.3168 19.3569L91.9238 15.746C91.9757 15.6894 92.0385 15.644 92.1085 15.6123C92.1784 15.5806 92.2541 15.5635 92.3308 15.5618C92.4076 15.5602 92.4839 15.5741 92.5551 15.6027C92.6264 15.6314 92.6911 15.6742 92.7454 15.7285C92.7996 15.7828 92.8423 15.8476 92.8709 15.9188C92.8995 15.9901 92.9133 16.0664 92.9116 16.1432C92.9099 16.2199 92.8927 16.2956 92.8609 16.3655C92.8292 16.4354 92.7836 16.4982 92.727 16.55L89.1193 20.1586C89.0667 20.2115 89.0042 20.2535 88.9353 20.2821C88.8665 20.3107 88.7926 20.3254 88.718 20.3253C88.5684 20.323 88.4256 20.2623 88.32 20.1562L88.3168 20.1601ZM105.958 20.0327C105.804 20.0327 105.656 19.9714 105.547 19.8622C105.438 19.753 105.376 19.6049 105.376 19.4506C105.376 19.2962 105.438 19.1481 105.547 19.0389C105.656 18.9297 105.804 18.8684 105.958 18.8684H112.115C112.191 18.8682 112.267 18.8831 112.338 18.9122C112.409 18.9413 112.473 18.984 112.528 19.038C112.582 19.092 112.625 19.1562 112.654 19.2268C112.684 19.2975 112.699 19.3732 112.699 19.4498C112.699 19.5264 112.684 19.6023 112.655 19.6731C112.625 19.7439 112.582 19.8082 112.528 19.8623C112.474 19.9164 112.409 19.9593 112.338 19.9886C112.268 20.0178 112.192 20.0328 112.115 20.0327H105.958ZM79.1322 18.2233C79.0355 18.1253 78.9814 17.993 78.9817 17.8552C78.982 17.7175 79.0367 17.5854 79.1339 17.4878C79.2311 17.3902 79.3629 17.3349 79.5006 17.334C79.6384 17.3332 79.7709 17.3867 79.8694 17.483C79.9203 17.5301 79.9613 17.587 79.9899 17.6502C80.0185 17.7135 80.0341 17.7818 80.0358 17.8512C80.0375 17.9206 80.0252 17.9896 79.9997 18.0542C79.9742 18.1187 79.9361 18.1775 79.8874 18.227C79.8388 18.2765 79.7807 18.3158 79.7167 18.3425C79.6526 18.3691 79.5838 18.3826 79.5144 18.3822C79.445 18.3818 79.3764 18.3674 79.3126 18.34C79.2489 18.3126 79.1913 18.2726 79.1433 18.2225L79.1322 18.2233ZM81.5073 15.8444C81.417 15.7543 81.3555 15.6395 81.3305 15.5145C81.3056 15.3895 81.3182 15.2599 81.367 15.1421C81.4157 15.0242 81.4983 14.9235 81.6043 14.8527C81.7102 14.7818 81.8349 14.744 81.9624 14.744C82.0898 14.744 82.2145 14.7818 82.3204 14.8527C82.4264 14.9235 82.509 15.0242 82.5577 15.1421C82.6065 15.2599 82.6191 15.3895 82.5942 15.5145C82.5692 15.6395 82.5077 15.7543 82.4174 15.8444C82.3581 15.9049 82.2872 15.9528 82.209 15.9852C82.1307 16.0177 82.0467 16.034 81.962 16.0332C81.794 16.0307 81.6338 15.9624 81.5159 15.8428L81.5073 15.8444Z" fill="black"/>
<path d="M42.7513 8.91739C42.761 8.70863 42.7221 8.50047 42.6376 8.30933C42.5531 8.11819 42.4253 7.94932 42.2643 7.81603C41.7242 7.44866 41.1189 7.18779 40.4809 7.04744C39.812 6.88695 39.1741 6.61745 38.5928 6.24973C38.3288 6.07778 38.1124 5.84202 37.9636 5.56426C37.8148 5.2865 37.7385 4.97571 37.7416 4.66062C37.7359 4.35665 37.8046 4.05588 37.9417 3.78452C38.0788 3.51317 38.2802 3.27946 38.5283 3.10377C39.1146 2.68618 39.8231 2.47556 40.5422 2.5051C41.0556 2.49636 41.5641 2.60592 42.0283 2.82528C42.4471 3.02075 42.8018 3.33123 43.051 3.72053C43.2908 4.10315 43.4159 4.54655 43.4113 4.99811H42.7033C42.7137 4.7405 42.6669 4.48377 42.5662 4.24641C42.4656 4.00905 42.3136 3.79694 42.1211 3.62534C41.6801 3.2615 41.1186 3.07648 40.5477 3.10691C40.0065 3.07899 39.4711 3.22902 39.0231 3.53409C38.8437 3.65884 38.6977 3.82587 38.5981 4.02043C38.4985 4.21498 38.4483 4.43107 38.452 4.64961C38.4476 4.85025 38.4912 5.04904 38.5791 5.2294C38.6671 5.40977 38.797 5.56648 38.9579 5.68646C39.4527 6.02387 40.0072 6.26414 40.5918 6.39448C41.1822 6.53856 41.7534 6.7522 42.2934 7.03092C42.6438 7.21779 42.9429 7.48795 43.1643 7.8176C43.3648 8.14384 43.4664 8.52121 43.4569 8.90402C43.4648 9.21188 43.3972 9.51699 43.2601 9.79274C43.1229 10.0685 42.9204 10.3065 42.6702 10.4861C42.0637 10.9076 41.3351 11.1175 40.5973 11.0831C40.0419 11.0894 39.491 10.9823 38.9783 10.7685C38.5274 10.5919 38.1383 10.2866 37.8596 9.89053C37.6022 9.50433 37.4691 9.04865 37.4781 8.58463H38.1861C38.1756 8.85259 38.2301 9.11911 38.3447 9.36154C38.4593 9.60397 38.6308 9.81513 38.8446 9.97706C39.3561 10.3398 39.975 10.5194 40.6012 10.4868C41.1549 10.514 41.7028 10.3638 42.1652 10.0581C42.351 9.93231 42.5024 9.76205 42.6055 9.56282C42.7087 9.36359 42.7604 9.14172 42.756 8.91739H42.7513ZM47.222 11.0831C46.7189 11.0878 46.2246 10.9515 45.795 10.6898C45.3704 10.4278 45.0283 10.0516 44.8077 9.60417C44.5655 9.11945 44.4432 8.58362 44.4513 8.04181V7.79636C44.4425 7.23955 44.5615 6.68813 44.799 6.18444C45.0121 5.72799 45.3459 5.33845 45.7643 5.0579C46.1602 4.78996 46.6275 4.64741 47.1056 4.64882C47.4429 4.6335 47.7793 4.69468 48.0897 4.82778C48.4 4.96088 48.6762 5.16246 48.8977 5.41742C49.3667 6.01742 49.6008 6.76786 49.5561 7.5281V7.91201H45.1255V8.04338C45.1017 8.68445 45.3161 9.31164 45.7273 9.80399C45.9115 10.0285 46.1442 10.2084 46.4078 10.3302C46.6714 10.452 46.9592 10.5125 47.2495 10.5073C47.5841 10.5136 47.9158 10.4447 48.2203 10.3059C48.5236 10.1553 48.787 9.93502 48.9889 9.66318L49.4192 9.99201C49.1774 10.3472 48.8483 10.6341 48.4635 10.8252C48.0786 11.0163 47.6511 11.1051 47.222 11.0831ZM47.0961 5.23648C46.8508 5.23226 46.6074 5.28071 46.3824 5.37856C46.1574 5.47641 45.956 5.62137 45.7918 5.80368C45.4179 6.22872 45.1914 6.76322 45.1459 7.3275H48.8662V7.24883C48.8705 6.71897 48.6903 6.20413 48.3564 5.79267C48.2023 5.61061 48.009 5.4657 47.7911 5.36871C47.5732 5.27173 47.3361 5.22519 47.0977 5.23255L47.0961 5.23648ZM53.178 10.5073C53.6167 10.5224 54.0458 10.3776 54.3856 10.0998C54.5422 9.97249 54.6699 9.81339 54.7604 9.63302C54.8508 9.45264 54.9019 9.25511 54.9103 9.05349H55.5696C55.5521 9.42531 55.4285 9.78433 55.2132 10.088C54.9927 10.4023 54.6946 10.6541 54.3478 10.8188C53.9865 10.9948 53.5894 11.0847 53.1875 11.0816C52.8217 11.0975 52.4571 11.0293 52.1217 10.8823C51.7864 10.7353 51.4892 10.5133 51.253 10.2335C50.749 9.58335 50.4958 8.77359 50.5395 7.95213V7.74602C50.5267 7.18974 50.6341 6.63727 50.8542 6.12622C51.0466 5.68124 51.3656 5.30263 51.7714 5.03745C52.1913 4.77558 52.6786 4.64214 53.1733 4.65354C53.79 4.63127 54.3914 4.84865 54.8513 5.26008C55.0717 5.46483 55.2481 5.71228 55.3698 5.98736C55.4915 6.26244 55.556 6.55941 55.5593 6.8602H54.9001C54.8889 6.41488 54.7019 5.99209 54.3801 5.6841C54.0519 5.38237 53.6181 5.22187 53.1725 5.23727C52.8966 5.22449 52.6217 5.2787 52.3712 5.39529C52.1208 5.51187 51.9023 5.68735 51.7345 5.90674C51.3604 6.46079 51.1799 7.12284 51.2207 7.79007V7.99068C51.1816 8.64692 51.3618 9.29755 51.7329 9.84018C51.9034 10.0583 52.124 10.232 52.376 10.3467C52.628 10.4613 52.9039 10.5134 53.1804 10.4986L53.178 10.5073ZM60.9222 10.1848C60.6967 10.4903 60.3968 10.7332 60.0511 10.8904C59.7054 11.0476 59.3253 11.114 58.9468 11.0831C58.6691 11.102 58.3905 11.0604 58.1304 10.9611C57.8703 10.8618 57.6348 10.7073 57.4403 10.5081C57.063 10.0223 56.8757 9.41569 56.9132 8.80175V4.76683H57.5929V8.71915C57.5929 9.89971 58.0707 10.49 59.0263 10.49C59.4359 10.5393 59.8498 10.4429 60.1954 10.2176C60.5411 9.9924 60.7964 9.65268 60.9167 9.25803V4.76683H61.605V10.973H60.9387L60.9222 10.1848ZM66.2465 5.35606C66.0931 5.32805 65.9375 5.31436 65.7816 5.31515C65.3892 5.30279 65.005 5.42864 64.6959 5.67073C64.3797 5.94177 64.1577 6.3062 64.0619 6.71152V10.973H63.3806V4.76683H64.0571L64.0689 5.75412C64.2148 5.41548 64.4598 5.12898 64.7717 4.93237C65.0836 4.73576 65.4478 4.63827 65.8162 4.65276C65.9713 4.64752 66.1258 4.6743 66.2701 4.73143L66.2465 5.35606ZM69.7347 11.0831C69.2316 11.0879 68.7372 10.9517 68.3076 10.6898C67.8805 10.4288 67.5359 10.0525 67.3133 9.60417C67.0712 9.12043 66.9482 8.58585 66.9545 8.04496V7.79951C66.9458 7.24278 67.0645 6.69144 67.3014 6.18759C67.5143 5.73073 67.8484 5.34107 68.2675 5.06105C68.664 4.79151 69.1325 4.64759 69.612 4.64804C69.9491 4.63306 70.2853 4.6944 70.5955 4.82748C70.9057 4.96057 71.1818 5.16196 71.4032 5.41663C71.8728 6.01664 72.107 6.76754 72.0617 7.5281V7.91201H67.6358V8.04338C67.6131 8.68459 67.8286 9.31151 68.2408 9.80321C68.425 10.0276 68.6577 10.2074 68.9213 10.329C69.1849 10.4507 69.4727 10.5111 69.763 10.5057C70.0966 10.5123 70.4274 10.4434 70.7306 10.3043C71.0338 10.1539 71.2972 9.93396 71.4992 9.66239L71.9295 9.99122C71.6881 10.3463 71.3594 10.6332 70.975 10.8245C70.5906 11.0157 70.1635 11.1048 69.7347 11.0831ZM69.608 5.23569C69.3633 5.23189 69.1207 5.28054 68.8964 5.37838C68.6721 5.47622 68.4713 5.62097 68.3076 5.8029C67.9331 6.2281 67.7067 6.76338 67.6625 7.32828H71.3812V7.24962C71.3862 6.71941 71.2059 6.20411 70.8714 5.79267C70.7174 5.61058 70.5241 5.46569 70.3062 5.36883C70.0882 5.27197 69.8511 5.22565 69.6127 5.23333L69.608 5.23569ZM82.3225 8.36593C82.2797 9.13533 81.9415 9.85851 81.3785 10.3846C80.7796 10.8732 80.0208 11.1223 79.2489 11.0839C78.6664 11.0953 78.0936 10.9335 77.6031 10.619C77.1164 10.2958 76.7338 9.83833 76.5018 9.30208C76.2331 8.68887 76.099 8.02522 76.1084 7.35582V6.27491C76.0958 5.59555 76.2299 4.92148 76.5018 4.29875C76.7346 3.75672 77.1217 3.29517 77.6149 2.9716C78.1188 2.65572 78.7038 2.49335 79.2984 2.50431C80.0732 2.46158 80.834 2.72264 81.4194 3.232C81.9597 3.7636 82.2818 4.47798 82.3225 5.23491H81.6145C81.6155 4.94032 81.5553 4.64874 81.4376 4.37869C81.3199 4.10864 81.1473 3.86602 80.9308 3.66625C80.7133 3.46666 80.4566 3.31461 80.177 3.21979C79.8974 3.12498 79.6012 3.08948 79.3071 3.11557C78.9599 3.10371 78.6149 3.1744 78.3003 3.32183C77.9858 3.46925 77.7107 3.68921 77.4977 3.96362C77.013 4.64594 76.7758 5.47325 76.8251 6.30874V7.33143C76.7831 8.1515 77.0147 8.96228 77.4836 9.63643C77.6876 9.91191 77.9555 10.1337 78.2643 10.2826C78.573 10.4316 78.9134 10.5033 79.256 10.4916C79.8594 10.5362 80.4569 10.3463 80.9237 9.96133C81.3344 9.52885 81.58 8.96582 81.6176 8.37065L82.3225 8.36593ZM84.5535 5.8147C84.7638 5.45904 85.0617 5.16326 85.4189 4.95563C85.7684 4.75213 86.1661 4.64592 86.5706 4.64804C86.844 4.62679 87.1187 4.66611 87.3752 4.7632C87.6316 4.86029 87.8635 5.01276 88.0543 5.20973C88.4143 5.69469 88.5892 6.29229 88.5475 6.89482V10.973H87.8663V6.89482C87.8974 6.45376 87.7739 6.01565 87.517 5.65578C87.3736 5.51008 87.1996 5.39802 87.0077 5.32769C86.8157 5.25735 86.6106 5.2305 86.407 5.24907C85.9975 5.24516 85.5999 5.38616 85.2844 5.64713C84.9456 5.92979 84.6938 6.30266 84.5582 6.72253V10.9707H83.877V2.16761H84.5567L84.5535 5.8147ZM92.7162 11.0855C92.2129 11.0901 91.7183 10.9539 91.2884 10.6922C90.861 10.4305 90.5163 10.0533 90.294 9.60417C90.0516 9.12085 89.9289 8.58639 89.9361 8.04574V7.8003C89.9273 7.24357 90.046 6.69221 90.283 6.18837C90.4958 5.73152 90.83 5.34185 91.249 5.06183C91.6446 4.79262 92.1119 4.64846 92.5903 4.64804C92.9275 4.63306 93.2637 4.6944 93.5739 4.82748C93.884 4.96057 94.1602 5.16196 94.3816 5.41663C94.8541 6.01553 95.0913 6.76647 95.0487 7.5281V7.91201H90.6236V8.04338C90.6009 8.68459 90.8164 9.31151 91.2286 9.80321C91.4128 10.0276 91.6455 10.2074 91.9091 10.329C92.1728 10.4507 92.4605 10.5111 92.7508 10.5057C93.0855 10.5128 93.4174 10.4439 93.7216 10.3043C94.0242 10.1537 94.2871 9.93377 94.4886 9.66239L94.9189 9.99122C94.6773 10.346 94.3485 10.6326 93.9641 10.8237C93.5798 11.0148 93.1528 11.1039 92.7241 11.0824L92.7162 11.0855ZM92.5896 5.23805C92.3442 5.23379 92.1008 5.28221 91.8758 5.38006C91.6508 5.47791 91.4494 5.62291 91.2852 5.80525C90.9116 6.23093 90.6856 6.766 90.6409 7.33064H94.3667V7.2567C94.3729 6.72596 94.1934 6.20974 93.8593 5.79739C93.7054 5.61501 93.5122 5.46982 93.2942 5.37269C93.0762 5.27555 92.8391 5.22898 92.6006 5.23648L92.5896 5.23805ZM98.6722 10.5089C99.1083 10.5218 99.5343 10.3768 99.8719 10.1006C100.029 9.97319 100.156 9.81396 100.247 9.63345C100.337 9.45293 100.388 9.25524 100.397 9.05349H101.056C101.039 9.42511 100.917 9.7843 100.703 10.0888C100.483 10.4028 100.185 10.6546 99.8381 10.8196C99.4765 10.9956 99.0791 11.0858 98.6769 11.0831C98.3101 11.0994 97.9445 11.0313 97.6081 10.884C97.2718 10.7367 96.9738 10.5141 96.737 10.2335C96.2338 9.58296 95.9806 8.77348 96.0234 7.95213V7.74602C96.0122 7.18856 96.1214 6.63524 96.3436 6.12386C96.5378 5.67917 96.8584 5.30137 97.2656 5.03745C97.6849 4.77558 98.1717 4.64213 98.6659 4.65354C99.2842 4.63045 99.8873 4.84785 100.349 5.26008C100.569 5.46469 100.746 5.71211 100.867 5.98722C100.989 6.26234 101.054 6.55938 101.057 6.8602H100.398C100.386 6.41426 100.197 5.99145 99.8735 5.6841C99.5452 5.38251 99.1114 5.22227 98.6659 5.23805C98.3891 5.22459 98.1132 5.27855 97.8619 5.39531C97.6106 5.51206 97.3914 5.68811 97.2231 5.90831C96.8517 6.46272 96.6734 7.12409 96.7157 7.79007V7.99068C96.6763 8.64695 96.8565 9.29768 97.2279 9.84018C97.3985 10.0581 97.6191 10.2318 97.8711 10.3464C98.1231 10.461 98.3989 10.5132 98.6754 10.4986L98.6722 10.5089ZM103.905 7.84828L103.119 8.60429V10.973H102.434V2.16761H103.121V7.80344L103.766 7.09936L106.148 4.76683H107.013L104.375 7.38178L107.233 10.973H106.416L103.905 7.84828ZM107.803 7.77984C107.795 7.2231 107.915 6.67192 108.153 6.1687C108.368 5.70888 108.711 5.32075 109.141 5.05082C109.569 4.78382 110.064 4.64538 110.569 4.65197C110.946 4.63867 111.322 4.7094 111.669 4.85905C112.016 5.0087 112.325 5.23354 112.575 5.51733C113.11 6.16235 113.385 6.98487 113.343 7.82232V7.96471C113.352 8.52423 113.233 9.07842 112.996 9.58529C112.785 10.0437 112.445 10.4304 112.017 10.6977C111.584 10.9626 111.085 11.099 110.578 11.091C110.201 11.104 109.826 11.033 109.479 10.8834C109.133 10.7338 108.824 10.5091 108.575 10.2257C108.039 9.58109 107.764 8.75824 107.806 7.92066L107.803 7.77984ZM108.49 7.96865C108.463 8.6257 108.667 9.27143 109.067 9.79377C109.245 10.023 109.474 10.2071 109.737 10.3311C109.999 10.4551 110.287 10.5154 110.577 10.5073C110.866 10.5151 111.153 10.4546 111.415 10.3308C111.676 10.207 111.905 10.0233 112.082 9.79455C112.485 9.25213 112.687 8.58627 112.653 7.91122V7.77906C112.659 7.33162 112.569 6.88811 112.39 6.47787C112.235 6.10937 111.978 5.79243 111.65 5.56374C111.33 5.34482 110.95 5.23 110.561 5.23491C110.273 5.22856 109.988 5.29039 109.728 5.41534C109.468 5.54029 109.242 5.72483 109.067 5.95394C108.662 6.49584 108.459 7.16175 108.492 7.83727L108.49 7.96865ZM118.746 10.184C118.521 10.4899 118.221 10.7332 117.875 10.8907C117.529 11.0482 117.149 11.1147 116.77 11.0839C116.492 11.1031 116.213 11.0614 115.953 10.9618C115.692 10.8622 115.457 10.7071 115.263 10.5073C114.886 10.0215 114.7 9.415 114.74 8.80175V4.76683H115.421V8.71915C115.421 9.89971 115.899 10.49 116.854 10.49C117.263 10.5387 117.677 10.442 118.022 10.2168C118.367 9.99162 118.622 9.65223 118.742 9.25803V4.76683H119.427V10.973H118.761L118.746 10.184ZM122.272 3.18244V4.76919H123.556V5.3301H122.271V9.46021C122.252 9.72958 122.317 9.99832 122.458 10.2288C122.533 10.3181 122.629 10.3877 122.738 10.4317C122.846 10.4757 122.964 10.4927 123.08 10.4813C123.265 10.4741 123.449 10.4551 123.631 10.4247L123.659 10.9864C123.422 11.0597 123.173 11.0926 122.925 11.0839C122.734 11.1005 122.543 11.0721 122.365 11.001C122.187 10.93 122.029 10.8183 121.902 10.6749C121.665 10.3189 121.552 9.89417 121.582 9.46729V5.33167H120.449V4.76997H121.59V3.18086L122.272 3.18244Z" fill="#8B8B8B"/>
<path d="M14.2513 34.5745C11.7893 33.2621 9.48315 31.6764 7.37644 29.8473C5.53874 28.2837 3.94513 26.4541 2.64845 24.4192C1.28826 22.3209 0.543909 19.8832 0.5 17.383V5.35142L14.2505 0.191528L28.0018 5.35142V17.3838C27.9576 19.8839 27.2132 22.3215 25.8534 24.42C24.5568 26.4547 22.9635 28.2843 21.1262 29.8481C19.0195 31.6772 16.7133 33.2629 14.2513 34.5753V34.5745ZM9.53118 16.6254C9.3068 16.6252 9.08457 16.6693 8.87732 16.7553C8.67007 16.8413 8.48189 16.9675 8.32362 17.1266C8.00319 17.448 7.82327 17.8834 7.82327 18.3373C7.82327 18.7912 8.00319 19.2265 8.32362 19.548L11.3673 22.5925C11.5255 22.7514 11.7136 22.8774 11.9207 22.9634C12.1278 23.0494 12.3499 23.0937 12.5741 23.0936C12.7985 23.0939 13.0207 23.0498 13.228 22.9638C13.4353 22.8778 13.6234 22.7516 13.7817 22.5925L15.1977 21.1764L21.7485 14.6241C21.9079 14.4661 22.0344 14.278 22.1205 14.0707C22.2067 13.8634 22.2508 13.641 22.2504 13.4165C22.2503 13.1923 22.2059 12.9702 22.1198 12.7631C22.0336 12.556 21.9075 12.368 21.7485 12.2098C21.5903 12.0505 21.4021 11.9242 21.1949 11.8381C20.9876 11.7519 20.7653 11.7077 20.5409 11.7079C20.3166 11.7079 20.0945 11.7523 19.8874 11.8384C19.6803 11.9246 19.4923 12.0508 19.3341 12.2098L12.578 18.9666L10.7435 17.1305C10.5849 16.9703 10.3961 16.8431 10.188 16.7564C9.97986 16.6697 9.75662 16.6252 9.53118 16.6254Z" fill="#006DFF"/>
</svg>
