<svg width="56" height="16" viewBox="0 0 56 16" fill="none" xmlns="http://www.w3.org/2000/svg">
<g clip-path="url(#clip0_226_2730)">
<path d="M21.1146 3.2637H18.1322C17.9282 3.2637 17.7546 3.42115 17.7228 3.6351L16.5166 11.7563C16.4926 11.9165 16.6094 12.061 16.7625 12.061H18.1863C18.3904 12.061 18.564 11.9035 18.5958 11.6891L18.9211 9.49871C18.9525 9.2843 19.1265 9.12685 19.3302 9.12685H20.2743C22.2388 9.12685 23.3727 8.11732 23.6688 6.11678C23.8022 5.24155 23.6744 4.55386 23.2885 4.07225C22.8646 3.54341 22.1128 3.2637 21.1146 3.2637ZM21.4587 6.22978C21.2956 7.36619 20.4779 7.36619 19.6873 7.36619H19.2373L19.553 5.24386C19.5718 5.11559 19.6764 5.02112 19.7985 5.02112H20.0048C20.5434 5.02112 21.0514 5.02112 21.3139 5.34713C21.4705 5.54163 21.5184 5.8306 21.4587 6.22978Z" fill="#253B80"/>
<path d="M30.0295 6.1932H28.6013C28.4796 6.1932 28.3745 6.28767 28.3558 6.41594L28.2925 6.84013L28.1927 6.68639C27.8835 6.20987 27.194 6.05057 26.5059 6.05057C24.9277 6.05057 23.5798 7.31989 23.3173 9.10046C23.1808 9.98866 23.3748 10.838 23.8493 11.4303C24.2845 11.9748 24.9072 12.2018 25.6481 12.2018C26.9197 12.2018 27.6249 11.3335 27.6249 11.3335L27.5612 11.7549C27.5372 11.916 27.6541 12.0605 27.8063 12.0605H29.0927C29.2973 12.0605 29.47 11.9031 29.5022 11.6887L30.2741 6.49791C30.2985 6.33814 30.1821 6.1932 30.0295 6.1932ZM28.0387 9.14492C27.9009 10.0114 27.2533 10.593 26.4274 10.593C26.0127 10.593 25.6813 10.4518 25.4685 10.1841C25.2574 9.91827 25.1772 9.53993 25.2443 9.11852C25.373 8.25949 26.0314 7.65887 26.8447 7.65887C27.2503 7.65887 27.58 7.80196 27.7971 8.07194C28.0147 8.3447 28.1011 8.72536 28.0387 9.14492Z" fill="#253B80"/>
<path d="M37.6357 6.19321H36.2005C36.0636 6.19321 35.9349 6.26546 35.8573 6.38632L33.8779 9.48252L33.0389 6.50719C32.9861 6.32103 32.8244 6.19321 32.6412 6.19321H31.2309C31.0595 6.19321 30.9405 6.37104 30.995 6.54238L32.5758 11.4687L31.0896 13.6966C30.9727 13.8721 31.0905 14.1134 31.2924 14.1134H32.7258C32.8619 14.1134 32.9892 14.043 33.0664 13.9245L37.8398 6.60768C37.954 6.43263 37.8367 6.19321 37.6357 6.19321Z" fill="#253B80"/>
<path d="M42.3872 3.2637H39.4044C39.2007 3.2637 39.0272 3.42115 38.9953 3.6351L37.7891 11.7563C37.7652 11.9165 37.882 12.061 38.0342 12.061H39.5649C39.707 12.061 39.8287 11.9508 39.8509 11.8007L40.1933 9.49871C40.2247 9.2843 40.3987 9.12685 40.6023 9.12685H41.546C43.511 9.12685 44.6444 8.11732 44.9409 6.11678C45.0748 5.24155 44.9461 4.55386 44.5602 4.07225C44.1368 3.54341 43.3854 3.2637 42.3872 3.2637ZM42.7313 6.22978C42.5686 7.36619 41.751 7.36619 40.9599 7.36619H40.5103L40.8265 5.24386C40.8452 5.11559 40.949 5.02112 41.0715 5.02112H41.2778C41.8159 5.02112 42.3244 5.02112 42.5869 5.34713C42.7435 5.54163 42.791 5.8306 42.7313 6.22978Z" fill="#179BD7"/>
<path d="M51.3018 6.1932H49.8745C49.7519 6.1932 49.6477 6.28767 49.6294 6.41594L49.5662 6.84013L49.4659 6.68639C49.1567 6.20987 48.4677 6.05057 47.7795 6.05057C46.2013 6.05057 44.8538 7.31989 44.5913 9.10046C44.4552 9.98866 44.6484 10.838 45.1229 11.4303C45.559 11.9748 46.1808 12.2018 46.9217 12.2018C48.1934 12.2018 48.8985 11.3335 48.8985 11.3335L48.8348 11.7549C48.8109 11.916 48.9277 12.0605 49.0808 12.0605H50.3668C50.5705 12.0605 50.744 11.9031 50.7758 11.6887L51.5482 6.49791C51.5717 6.33814 51.4548 6.1932 51.3018 6.1932ZM49.311 9.14492C49.1741 10.0114 48.5257 10.593 47.6997 10.593C47.2859 10.593 46.9536 10.4518 46.7408 10.1841C46.5297 9.91827 46.4503 9.53993 46.5166 9.11852C46.6461 8.25949 47.3037 7.65887 48.117 7.65887C48.5226 7.65887 48.8523 7.80196 49.0695 8.07194C49.2879 8.3447 49.3743 8.72536 49.311 9.14492Z" fill="#179BD7"/>
<path d="M52.9855 3.48648L51.7614 11.7563C51.7374 11.9165 51.8543 12.061 52.0065 12.061H53.2371C53.4416 12.061 53.6152 11.9036 53.6466 11.6891L54.8536 3.56845C54.8776 3.40822 54.7608 3.26328 54.6086 3.26328H53.2305C53.1089 3.26374 53.0042 3.35821 52.9855 3.48648Z" fill="#179BD7"/>
<path d="M4.13137 13.6392L4.35945 12.1008L3.85141 12.0883H1.42548L3.11137 0.736664C3.11661 0.702395 3.13362 0.670442 3.15847 0.647751C3.18333 0.62506 3.21516 0.612556 3.24831 0.612556H7.33877C8.69673 0.612556 9.63388 0.912637 10.1232 1.50493C10.3525 1.78278 10.4986 2.07313 10.5693 2.39266C10.6434 2.72794 10.6447 3.12851 10.5723 3.61707L10.5671 3.65273V3.96577L10.7965 4.10377C10.9897 4.2126 11.1432 4.33717 11.2609 4.4798C11.4571 4.71736 11.584 5.0193 11.6377 5.37726C11.6931 5.74542 11.6747 6.1835 11.584 6.67946C11.4794 7.24999 11.3102 7.74688 11.0817 8.15347C10.8715 8.52811 10.6037 8.83884 10.2858 9.07965C9.98231 9.30841 9.62167 9.48207 9.21393 9.59321C8.81884 9.7025 8.36836 9.75761 7.87428 9.75761H7.55594C7.3283 9.75761 7.10721 9.84467 6.93365 10.0007C6.75965 10.16 6.64452 10.3777 6.6092 10.6157L6.58522 10.7542L6.18227 13.4655L6.16396 13.5651C6.15916 13.5966 6.15088 13.6123 6.13867 13.623C6.12776 13.6327 6.11207 13.6392 6.0968 13.6392H4.13137Z" fill="#253B80"/>
<path d="M11.0137 3.68885C11.0015 3.77174 10.9876 3.85649 10.9719 3.94355C10.4324 6.88462 8.58692 7.90063 6.22989 7.90063H5.02978C4.74153 7.90063 4.49863 8.12291 4.45372 8.42484L3.83928 12.563L3.66528 13.736C3.63606 13.9342 3.77997 14.1129 3.96836 14.1129H6.09688C6.34894 14.1129 6.56305 13.9185 6.60274 13.6545L6.62367 13.5396L7.02443 10.8389L7.05016 10.6907C7.08941 10.4258 7.30396 10.2313 7.55602 10.2313H7.87436C9.93659 10.2313 11.551 9.34222 12.0228 6.76931C12.2199 5.69448 12.1179 4.79702 11.5963 4.16583C11.4385 3.9755 11.2427 3.81759 11.0137 3.68885Z" fill="#179BD7"/>
<path d="M10.4494 3.4499C10.367 3.42443 10.282 3.40128 10.1948 3.38044C10.1071 3.36007 10.0173 3.342 9.92484 3.32626C9.60127 3.27069 9.24673 3.24429 8.8669 3.24429H5.66081C5.58188 3.24429 5.50688 3.26328 5.43972 3.29755C5.29189 3.37303 5.182 3.52168 5.15539 3.70368L4.47336 8.29102L4.45374 8.42485C4.49865 8.12292 4.74155 7.90064 5.0298 7.90064H6.2299C8.58694 7.90064 10.4324 6.88416 10.9719 3.94356C10.988 3.85649 11.0015 3.77175 11.0137 3.68886C10.8772 3.61198 10.7294 3.54623 10.5702 3.49019C10.531 3.4763 10.4904 3.46287 10.4494 3.4499Z" fill="#222D65"/>
<path d="M5.15533 3.70366C5.18193 3.52167 5.29183 3.37302 5.43966 3.298C5.50725 3.26373 5.58182 3.24474 5.66075 3.24474H8.86684C9.24667 3.24474 9.6012 3.27114 9.92478 3.32671C10.0172 3.34245 10.1071 3.36051 10.1947 3.38089C10.2819 3.40173 10.367 3.42488 10.4494 3.45035C10.4904 3.46332 10.5309 3.47675 10.5706 3.49018C10.7298 3.54621 10.8776 3.61243 11.0141 3.68884C11.1746 2.60198 11.0128 1.86196 10.4594 1.19188C9.84933 0.454177 8.74822 0.138351 7.33924 0.138351H3.24877C2.96096 0.138351 2.71544 0.360633 2.67096 0.663029L0.967186 12.1314C0.933607 12.3583 1.09845 12.563 1.31387 12.563H3.83923L4.4733 8.291L5.15533 3.70366Z" fill="#253B80"/>
</g>
<defs>
<clipPath id="clip0_226_2730">
<rect width="54.0744" height="15.2819" fill="white" transform="translate(0.96283 0.138351)"/>
</clipPath>
</defs>
</svg>
