<svg width="52" height="19" viewBox="0 0 52 19" fill="none" xmlns="http://www.w3.org/2000/svg">
<path fill-rule="evenodd" clip-rule="evenodd" d="M35.1003 2.90636C35.1003 1.73637 36.027 0.787292 37.1682 0.787292C38.3114 0.787292 39.2375 1.73637 39.2375 2.90636C39.2375 4.07704 38.3114 5.02405 37.1682 5.02405C36.027 5.02405 35.1003 4.07704 35.1003 2.90636ZM41.046 2.51975L45.2403 1.75099V18.2431H41.046V2.51975ZM47.1723 2.51975V18.2431H51.3694V1.75099L47.1723 2.51975ZM35.0714 6.18082V18.2435H39.2677V6.18082H35.0714ZM26.8573 11.4575C26.8573 7.91451 28.8271 6.13198 32.7043 6.00397C32.7043 6.00397 33.4045 5.97644 33.8178 6.0666V9.59242C31.3601 9.67913 31.0886 10.5883 31.0886 12.7087V18.2435H26.8573V11.4575ZM21.2983 6.22346L21.2983 6.22351C21.1481 6.62739 20.4643 8.46559 18.9298 10.3663V1.75099L14.599 2.62849V18.2431H18.9298V13.4159C20.1839 15.3429 20.8035 18.2431 20.8035 18.2431H25.9898C25.477 16.0587 23.233 12.0318 23.233 12.0318C25.2478 9.41515 26.1316 6.6285 26.2727 6.1667H21.3196C21.3144 6.18029 21.3073 6.19931 21.2983 6.22346ZM5.57817 6.63745C5.57817 7.76959 6.80669 7.85149 7.33694 7.88659C11.2261 8.15362 13.5441 10.1034 13.5441 13.1034C13.5441 15.7503 11.4714 18.42 6.84769 18.42C4.70382 18.42 2.87448 18.2039 1.25213 17.7669V13.9141C2.33548 14.3704 4.12047 14.8494 5.95922 14.8494C7.63735 14.8494 8.63536 14.281 8.63536 13.3147C8.63536 12.1489 7.42504 12.073 6.96091 12.0438L6.95589 12.0435C1.53977 11.6657 0.956421 8.38418 0.956421 6.9912C0.956421 4.57206 2.63253 1.75099 7.36315 1.75099C10.1072 1.75099 11.5864 2.1894 12.8606 2.6457L12.9244 2.66566V6.40758L12.8767 6.39381C12.3653 6.1722 11.7645 5.95472 11.7645 5.95472C10.6851 5.62368 9.1757 5.2713 8.009 5.2713C7.34568 5.2713 5.57817 5.2713 5.57817 6.63745Z" fill="#862165"/>
</svg>
